<?xml version='1.0' encoding='utf-8'?>
<svg xmlns="http://www.w3.org/2000/svg" width="1920" height="1080" viewBox="0 0 1920 1080" data-theme="light">
  <style>
        @font-face {
            font-family: 'Inter';
            src: url('assets/fonts/Inter-Regular.ttf') format('truetype');
            font-weight: 400;
            font-style: normal;
            font-display: swap;
        }
        @font-face {
            font-family: 'Inter';
            src: url('assets/fonts/Inter-Bold.ttf') format('truetype');
            font-weight: 600;
            font-style: normal;
            font-display: swap;
        }
        @font-face {
            font-family: 'Inter';
            src: url('assets/fonts/Inter-Bold.ttf') format('truetype');
            font-weight: 800;
            font-style: normal;
            font-display: swap;
        }
        
:root {
    --background: #f8fafc;
    --panel: #ffffff;
    --primary-text: #0f172a;
    --muted-text: #64748b;
    --inverse-text: #ffffff;
    --border: #e2e8f0;
    --shadow-color: #000000;
    --icon-pad-bg: #1e293b;
    --art-glow: #0891b2;
    --art-glow-opacity: 0.10;
    --art-sheen: #ffffff;
    --art-sheen-opacity: 0.34;
    --art-shadow: #0f172a;
    --art-shadow-opacity: 0.14;
    --art-muted-line: #94a3b8;
    --art-panel-tint: #f1f5f9;
    --font-family: 'Inter', 'Segoe UI', 'Kalam', Roboto, Helvetica, Arial, sans-serif;
    --radius-xl: 16px;
    --font-family-headline: 'Inter', 'Segoe UI', 'Kalam', Roboto, Helvetica, Arial, sans-serif;
    --font-family-body: 'Inter', 'Segoe UI', 'Kalam', Roboto, Helvetica, Arial, sans-serif;
    --font-heading: 'Inter', 'Segoe UI', 'Kalam', Roboto, Helvetica, Arial, sans-serif;
    --font-body: 'Inter', 'Segoe UI', 'Kalam', Roboto, Helvetica, Arial, sans-serif;
    --font-size-h1: 56px;
    --font-size-h2: 40px;
    --font-size-h3: 28px;
    --font-size-body: 24px;
    --font-size-caption: 18px;
    --secondary-text: var(--muted-text);
    --panel-border: var(--border);
    --font-weight-normal: 400;
    --font-weight-medium: 500;
    --font-weight-semibold: 600;
    --font-weight-bold: 700;
    --spacing-gutter-pct: 0.07;
    --spacing-top-pct: 0.15;
    --spacing-bottom-pct: 0.07;
    --spacing-title-y-pct: 0.055;
    --accent-1: #0891b2;
    --accent-2: #0284c7;
    --accent-3: #2563eb;
    --accent-4: #4f46e5;
    --accent-5: #7c3aed;
    --accent-6: #0d9488;
}
:root[data-theme="dark"] {
    --background: #0f172a;
    --panel: #1e293b;
    --primary-text: #f1f5f9;
    --muted-text: #94a3b8;
    --inverse-text: #0f172a;
    --border: #334155;
    --shadow-color: #000000;
    --icon-pad-bg: #1e293b;
    --art-glow: #7dd3fc;
    --art-glow-opacity: 0.18;
    --art-sheen: #ffffff;
    --art-sheen-opacity: 0.18;
    --art-shadow: #000000;
    --art-shadow-opacity: 0.28;
    --art-muted-line: #64748b;
    --art-panel-tint: #1e293b;
    --accent-1: #22d3ee;
    --accent-2: #38bdf8;
    --accent-3: #60a5fa;
    --accent-4: #818cf8;
    --accent-5: #a78bfa;
    --accent-6: #2dd4bf;
}
:root[data-theme="light"] {
    --background: #f8fafc;
    --panel: #ffffff;
    --primary-text: #0f172a;
    --muted-text: #64748b;
    --inverse-text: #ffffff;
    --border: #e2e8f0;
    --shadow-color: #000000;
    --icon-pad-bg: #1e293b;
    --art-glow: #0891b2;
    --art-glow-opacity: 0.10;
    --art-sheen: #ffffff;
    --art-sheen-opacity: 0.34;
    --art-shadow: #0f172a;
    --art-shadow-opacity: 0.14;
    --art-muted-line: #94a3b8;
    --art-panel-tint: #f1f5f9;
    --accent-1: #0891b2;
    --accent-2: #0284c7;
    --accent-3: #2563eb;
    --accent-4: #4f46e5;
    --accent-5: #7c3aed;
    --accent-6: #0d9488;
}</style>
  <rect x="0" y="0" width="1.92E+3" height="1.08E+3" fill="#252a34" stroke="none" id="programmatic_background"/>
  <line id="HEADER_DECOR" x1="960.0" x2="1080.0" y1="123.0" y2="123.0" stroke="var(--accent-1)" stroke-width="6" stroke-linecap="round"/>
  <defs>
    <pattern id="svg68a988b7-napkin-hatch" patternUnits="userSpaceOnUse" width="12" height="12">
      <path d="M -3 12 L 12 -3 M 0 15 L 15 0" fill="none" stroke="var(--primary-text)" stroke-width="1" stroke-opacity="0.05"/>
    </pattern>
    <filter id="svg68a988b7-shadow" x="-30%" y="-30%" width="160%" height="160%">
      <feDropShadow dx="0" dy="3" stdDeviation="6" flood-color="#000000" flood-opacity="0.10"/>
      <feDropShadow dx="0" dy="8" stdDeviation="12" flood-color="#000000" flood-opacity="0.16"/>
    </filter>
    <radialGradient id="svg68a988b7-universal-edge-vignette" cx="50%" cy="50%" r="72%">
      <stop offset="0%" stop-color="var(--background)" stop-opacity="0"/>
      <stop offset="72%" stop-color="var(--background)" stop-opacity="0.12"/>
      <stop offset="100%" stop-color="var(--primary-text)" stop-opacity="0.08"/>
    </radialGradient>
    <linearGradient id="svg68a988b7-universal-surface-sheen" x1="0%" y1="0%" x2="100%" y2="100%">
      <stop offset="0%" stop-color="var(--art-sheen)" stop-opacity="var(--art-sheen-opacity)"/>
      <stop offset="46%" stop-color="var(--art-sheen)" stop-opacity="0.035"/>
      <stop offset="100%" stop-color="var(--art-panel-tint)" stop-opacity="0.14"/>
    </linearGradient>
    <radialGradient id="svg68a988b7-universal-icon-aura" cx="50%" cy="42%" r="64%">
      <stop offset="0%" stop-color="var(--art-glow)" stop-opacity="var(--art-glow-opacity)"/>
      <stop offset="100%" stop-color="var(--background)" stop-opacity="0"/>
    </radialGradient>
    <filter id="svg68a988b7-text-glow" x="-20%" y="-20%" width="140%" height="140%">
      <feDropShadow dx="0" dy="0" stdDeviation="2" flood-color="#000000" flood-opacity="0.4"/>
    </filter>
    <marker id="svg68a988b7-arrowhead" markerWidth="10" markerHeight="7" refX="9" refY="3.5" orient="auto" markerUnits="strokeWidth">
      <polygon points="0 0, 10 3.5, 0 7" fill="var(--muted-text)" opacity="0.6"/>
    </marker>
  </defs>
  <rect width="100%" height="100%" fill="var(--background)" id="CANVAS_BG"/>
  <rect width="100%" height="100%" fill="url(#svg68a988b7-napkin-hatch)"/>
  <rect id="UNIVERSAL_EDGE_VIGNETTE" width="100%" height="100%" fill="url(#svg68a988b7-universal-edge-vignette)" opacity="0.62"/>
  <text id="TITLE" x="960.0" y="59" text-anchor="middle" font-size="58" font-weight="800" fill="#0f172a" style="font-size: 60px; font-family: Inter, Segoe UI, Kalam, Roboto, Helvetica, Arial, sans-serif; font-weight: 700; letter-spacing:-1.2px;" data-final-font-size="60">
    <tspan x="960.0" dy="68.00px">Historical Balloon and UAP Contexts</tspan>
  </text>
  <rect id="TITLE_FRAME" x="134" y="57" width="1652" height="98" fill="none"/>
  <rect x="140" y="150" width="1640" height="850" rx="40" fill="var(--panel)" fill-opacity="0.24" stroke="var(--muted-text)" stroke-width="2.4" opacity="0.96"/>
  <line x1="960" y1="220" x2="960" y2="940" stroke="var(--muted-text)" stroke-width="14" stroke-linecap="round" opacity="0.18"/>
  <line x1="960" y1="220" x2="960" y2="940" stroke="var(--border)" stroke-width="4" stroke-linecap="round" opacity="0.88"/>
  <g id="DIAGRAM_MAIN">
    <g filter="url(#svg68a988b7-shadow)">
      <line x1="934" y1="255.0" x2="604.0" y2="255.0" stroke="var(--accent-1)" stroke-width="3.5" opacity="0.84"/>
      <circle cx="960" cy="255.0" r="20" fill="var(--background)" stroke="var(--accent-1)" stroke-width="3.2"/>
      <text x="960" y="261.0" text-anchor="middle" font-size="14" font-weight="800" fill="var(--primary-text)">1</text>
      <rect id="ITEM_1_BG" x="170" y="177.0" width="470" height="156" rx="22" fill="var(--panel)" fill-opacity="0.97" stroke="var(--accent-1)" stroke-width="3.2"/>
      <rect x="170" y="177.0" width="470" height="16" rx="8" fill="var(--accent-1)" fill-opacity="0.55"/>
      <circle id="ITEM_1_PAD" cx="568.0" cy="255.0" r="40" fill="var(--icon-pad-bg)" opacity="0.95" fill-opacity="0.9" stroke-width="2" stroke="var(--primary-text)"/>
      <circle id="ITEM_1_PAD_INNER" cx="568.0" cy="255.0" r="31.20" fill="var(--accent-5)" fill-opacity="0.22"/>
      <circle cx="568.0" cy="255.0" r="32" fill="none" stroke="var(--accent-1)" stroke-width="3" stroke-dasharray="6 4"/>
      <g id="ITEM_1_ICON" transform="translate(538.0, 225.0)" data-icon-size="60" stroke-dasharray="6 4">
        <g transform="translate(-6.924770642201838,-6.352293577981655) scale(3.053211009174312)" vector-effect="non-scaling-stroke" stroke-width="2.43" stroke-linecap="round" stroke-linejoin="round" stroke-opacity="1.0">
          <path d="M17.8 19.2 16 11l3.5-3.5C21 6 21.5 4 21 3c-1-.5-3 0-4.5 1.5L13 8 4.8 6.2c-.5-.1-.9.1-1.1.5l-.3.5c-.2.5-.1 1 .3 1.3L9 12l-2 3H4l-1 1 3 2 2 3 1-1v-3l3-2 3.5 5.3c.3.4.8.5 1.3.3l.5-.2c.4-.3.6-.7.5-1.2z" vector-effect="non-scaling-stroke" fill="none" stroke="#f1f5f9"/>
        </g>
      </g>
      <text id="ITEM_1_HEAD" x="346.0" y="195.0" text-anchor="middle" font-weight="800" font-size="24" fill="var(--accent-5)" data-bg-id="ITEM_1_BG" fill-opacity="1.0" style="font-size: 30px; font-family: Inter, Segoe UI, Kalam, Roboto, Helvetica, Arial, sans-serif; font-weight: 700; letter-spacing:-0.4px;" data-final-font-size="30">
        <tspan x="346.0" dy="29.33px">Project Mogul</tspan>
      </text>
      <rect id="ITEM_1_HEAD_FRAME" x="206.0" y="195.0" width="280" height="34" fill="none"/>
      <text id="ITEM_1_BODY" x="362.0" y="235.0" text-anchor="middle" font-size="18" fill="var(--primary-text)" data-bg-id="ITEM_1_BG" style="font-size: 25px; font-family: Inter, Segoe UI, Kalam, Roboto, Helvetica, Arial, sans-serif; font-weight: 400;" data-final-font-size="25">
        <tspan x="362.0" dy="20.11px">Secret balloon research</tspan>
        <tspan x="362.0" dy="28.75px">fueled early</tspan>
        <tspan x="362.0" dy="28.75px">Roswell legends</tspan>
      </text>
      <rect id="ITEM_1_BODY_FRAME" x="202.0" y="235.0" width="320" height="70" fill="none"/>
    </g>
    <g filter="url(#svg68a988b7-shadow)">
      <line x1="986" y1="417.5" x2="1316.0" y2="417.5" stroke="var(--accent-2)" stroke-width="3.5" opacity="0.84"/>
      <circle cx="960" cy="417.5" r="20" fill="var(--background)" stroke="var(--accent-2)" stroke-width="3.2"/>
      <text x="960" y="423.5" text-anchor="middle" font-size="14" font-weight="800" fill="var(--primary-text)">2</text>
      <rect id="ITEM_2_BG" x="1280" y="339.5" width="470" height="156" rx="22" fill="var(--panel)" fill-opacity="0.97" stroke="var(--accent-2)" stroke-width="3.2"/>
      <rect x="1280" y="339.5" width="470" height="16" rx="8" fill="var(--accent-2)" fill-opacity="0.55"/>
      <circle id="ITEM_2_PAD" cx="1352.0" cy="417.5" r="40" fill="var(--icon-pad-bg)" opacity="0.95" fill-opacity="0.9" stroke-width="2" stroke="var(--primary-text)"/>
      <circle id="ITEM_2_PAD_INNER" cx="1352.0" cy="417.5" r="31.20" fill="var(--accent-6)" fill-opacity="0.22"/>
      <circle cx="1352.0" cy="417.5" r="32" fill="none" stroke="var(--accent-2)" stroke-width="3" stroke-dasharray="6 4"/>
      <g id="ITEM_2_ICON" transform="translate(1322.0, 387.5)" data-icon-size="60" stroke-dasharray="6 4">
        <g transform="translate(-5.65714285714286,-5.65714285714286) scale(2.2285714285714286)">
          <path d="M2 6C2 3.79086 3.79086 2 6 2H26C28.2091 2 30 3.79086 30 6V20L2 15V6Z" fill="#50E2FF"/>
          <path d="M17.5 7H15.25C14.5596 7 14 6.44036 14 5.75C14 5.05964 14.5596 4.5 15.25 4.5C15.5973 4.5 15.9116 4.64167 16.1381 4.87039C16.3761 4.35648 16.8964 4 17.5 4C18.3284 4 19 4.67157 19 5.5C19 6.29826 18.3764 6.95089 17.5898 6.99735V7H17.5ZM24.5 13H19.5H19.0275C19.0123 13 19 12.9877 19 12.9725C19 12.9594 18.9907 12.9481 18.9779 12.9454C17.8478 12.7053 17 11.7017 17 10.5C17 9.11929 18.1193 8 19.5 8C19.8345 8 20.1537 8.0657 20.4453 8.18489C20.7853 8.32386 21.235 8.18407 21.4074 7.85973C21.9954 6.75336 23.1597 6 24.5 6C26.433 6 28 7.567 28 9.5C28 11.416 26.4605 12.9724 24.551 12.9996L24.5508 12.9998L24.5506 13H24.5Z" fill="#F3EEF8"/>
          <path d="M6.9651 30H8.9925L13 29V9V8V7.25C13 6.55964 12.4404 6 11.75 6H10.25C9.55964 6 9 6.55964 9 7.25V8H5.25C4.55964 8 4 8.55964 4 9.25V28.4649L6.9651 30ZM18 29L20.9956 30H23.0053L28 28.4649V17.25C28 16.5596 27.4404 16 26.75 16H19.25C18.5596 16 18 16.5596 18 17.25V29Z" fill="#1C5CD7"/>
          <path d="M2 14V26C2 28.2091 3.79086 30 6 30H7V15.25C7 14.5596 6.44036 14 5.75 14H2ZM9 30H17H19H21V24.25C21 23.5596 20.4404 23 19.75 23H19V12.25C19 11.5596 18.4404 11 17.75 11H10.25C9.55964 11 9 11.5596 9 12.25V30ZM23 30H26C28.2091 30 30 28.2091 30 26V19H24.25C23.5596 19 23 19.5596 23 20.25V30Z" fill="#46A4FB"/>
          <path d="M11.5 13C11.2239 13 11 13.2239 11 13.5V14.5C11 14.7761 11.2239 15 11.5 15H12.5C12.7761 15 13 14.7761 13 14.5V13.5C13 13.2239 12.7761 13 12.5 13H11.5ZM3.5 20C3.22386 20 3 20.2239 3 20.5V21.5C3 21.7761 3.22386 22 3.5 22H4.5C4.77614 22 5 21.7761 5 21.5V20.5C5 20.2239 4.77614 20 4.5 20H3.5ZM11 17.5C11 17.2239 11.2239 17 11.5 17H12.5C12.7761 17 13 17.2239 13 17.5V18.5C13 18.7761 12.7761 19 12.5 19H11.5C11.2239 19 11 18.7761 11 18.5V17.5ZM11.5 25C11.2239 25 11 25.2239 11 25.5V26.5C11 26.7761 11.2239 27 11.5 27H12.5C12.7761 27 13 26.7761 13 26.5V25.5C13 25.2239 12.7761 25 12.5 25H11.5ZM15 17.5C15 17.2239 15.2239 17 15.5 17H16.5C16.7761 17 17 17.2239 17 17.5V18.5C17 18.7761 16.7761 19 16.5 19H15.5C15.2239 19 15 18.7761 15 18.5V17.5ZM15.5 21C15.2239 21 15 21.2239 15 21.5V22.5C15 22.7761 15.2239 23 15.5 23H16.5C16.7761 23 17 22.7761 17 22.5V21.5C17 21.2239 16.7761 21 16.5 21H15.5ZM24 22C24 21.4477 24.4477 21 25 21H30V23H25C24.4477 23 24 22.5523 24 22ZM25 25C24.4477 25 24 25.4477 24 26C24 26.5523 24.4477 27 25 27H30V25H25Z" fill="#FFF478"/>
          <path d="M11.5 13C11.2239 13 11 13.2239 11 13.5H12C12.2761 13.5 12.5 13.7239 12.5 14V15C12.7761 15 13 14.7761 13 14.5V13.5C13 13.2239 12.7761 13 12.5 13H11.5Z" fill="#FCD53F"/>
          <path d="M3.5 20C3.22386 20 3 20.2239 3 20.5H4C4.27614 20.5 4.5 20.7239 4.5 21V22C4.77614 22 5 21.7761 5 21.5V20.5C5 20.2239 4.77614 20 4.5 20H3.5Z" fill="#FCD53F"/>
          <path d="M11 17.5C11 17.2239 11.2239 17 11.5 17H12.5C12.7761 17 13 17.2239 13 17.5V18.5C13 18.7761 12.7761 19 12.5 19V18C12.5 17.7239 12.2761 17.5 12 17.5H11Z" fill="#FCD53F"/>
          <path d="M11.5 25C11.2239 25 11 25.2239 11 25.5H12C12.2761 25.5 12.5 25.7239 12.5 26V27C12.7761 27 13 26.7761 13 26.5V25.5C13 25.2239 12.7761 25 12.5 25H11.5Z" fill="#FCD53F"/>
          <path d="M15 17.5C15 17.2239 15.2239 17 15.5 17H16.5C16.7761 17 17 17.2239 17 17.5V18.5C17 18.7761 16.7761 19 16.5 19V18C16.5 17.7239 16.2761 17.5 16 17.5H15Z" fill="#FCD53F"/>
          <path d="M15.5 21C15.2239 21 15 21.2239 15 21.5H16C16.2761 21.5 16.5 21.7239 16.5 22V23C16.7761 23 17 22.7761 17 22.5V21.5C17 21.2239 16.7761 21 16.5 21H15.5Z" fill="#FCD53F"/>
          <path d="M25 21C24.6299 21 24.3067 21.2011 24.1338 21.5H30V21H25Z" fill="#FCD53F"/>
          <path d="M25 25C24.6299 25 24.3067 25.2011 24.1338 25.5H30V25H25Z" fill="#FCD53F"/>
          <path d="M15 13.5C15 13.2239 15.2239 13 15.5 13H16.5C16.7761 13 17 13.2239 17 13.5V14.5C17 14.7761 16.7761 15 16.5 15H15.5C15.2239 15 15 14.7761 15 14.5V13.5ZM3 16.5C3 16.2239 3.22386 16 3.5 16H4.5C4.77614 16 5 16.2239 5 16.5V17.5C5 17.7761 4.77614 18 4.5 18H3.5C3.22386 18 3 17.7761 3 17.5V16.5ZM3 24.5C3 24.2239 3.22386 24 3.5 24H4.5C4.77614 24 5 24.2239 5 24.5V25.5C5 25.7761 4.77614 26 4.5 26H3.5C3.22386 26 3 25.7761 3 25.5V24.5ZM11.5 21C11.2239 21 11 21.2239 11 21.5V22.5C11 22.7761 11.2239 23 11.5 23H12.5C12.7761 23 13 22.7761 13 22.5V21.5C13 21.2239 12.7761 21 12.5 21H11.5ZM15.5 25C15.2239 25 15 25.2239 15 25.5V26.5C15 26.7761 15.2239 27 15.5 27H16.5C16.7761 27 17 26.7761 17 26.5V25.5C17 25.2239 16.7761 25 16.5 25H15.5Z" fill="#321B41"/>
          <path d="M20.5 24V30H21V24C21 23.4477 20.5523 23 20 23H19V12C19 11.4477 18.5523 11 18 11H15L18 11.5C18.2761 11.5 18.5 11.7239 18.5 12V23.25C18.5 23.3881 18.6119 23.5 18.75 23.5H20C20.2761 23.5 20.5 23.7239 20.5 24Z" fill="#46A4FB"/>
        </g>
      </g>
      <text id="ITEM_2_HEAD" x="1570.0" y="357.5" text-anchor="middle" font-weight="800" font-size="24" fill="var(--primary-text)" data-bg-id="ITEM_2_BG" fill-opacity="1.0" style="font-size: 30px; font-family: Inter, Segoe UI, Kalam, Roboto, Helvetica, Arial, sans-serif; font-weight: 700; letter-spacing:-0.4px;" data-final-font-size="30">
        <tspan x="1570.0" dy="29.33px">Sendai Sighting</tspan>
      </text>
      <rect id="ITEM_2_HEAD_FRAME" x="1430.0" y="357.5" width="280" height="34" fill="none"/>
      <text id="ITEM_2_BODY" x="1580.0" y="397.5" text-anchor="middle" font-size="18" fill="var(--primary-text)" data-bg-id="ITEM_2_BG" style="font-size: 26px; font-family: Inter, Segoe UI, Kalam, Roboto, Helvetica, Arial, sans-serif; font-weight: 400;" data-final-font-size="26">
        <tspan x="1580.0" dy="26.20px">A white balloon lingered</tspan>
        <tspan x="1580.0" dy="29.90px">over Japan in 2020</tspan>
      </text>
      <rect id="ITEM_2_BODY_FRAME" x="1420.0" y="397.5" width="320" height="70" fill="none"/>
    </g>
    <g filter="url(#svg68a988b7-shadow)">
      <line x1="934" y1="580.0" x2="604.0" y2="580.0" stroke="var(--accent-3)" stroke-width="3.5" opacity="0.84"/>
      <circle cx="960" cy="580.0" r="20" fill="var(--background)" stroke="var(--accent-3)" stroke-width="3.2"/>
      <text x="960" y="586.0" text-anchor="middle" font-size="14" font-weight="800" fill="var(--primary-text)">3</text>
      <rect id="ITEM_3_BG" x="170" y="502.0" width="470" height="156" rx="22" fill="var(--panel)" fill-opacity="0.97" stroke="var(--accent-3)" stroke-width="3.2"/>
      <rect x="170" y="502.0" width="470" height="16" rx="8" fill="var(--accent-3)" fill-opacity="0.55"/>
      <circle id="ITEM_3_PAD" cx="568.0" cy="580.0" r="40" fill="var(--icon-pad-bg)" opacity="0.95" fill-opacity="0.9" stroke-width="2" stroke="var(--primary-text)"/>
      <circle id="ITEM_3_PAD_INNER" cx="568.0" cy="580.0" r="31.20" fill="var(--accent-1)" fill-opacity="0.22"/>
      <circle cx="568.0" cy="580.0" r="32" fill="none" stroke="var(--accent-3)" stroke-width="3" stroke-dasharray="6 4"/>
      <g id="ITEM_3_ICON" transform="translate(538.0, 550.0)" data-icon-size="60" stroke-dasharray="6 4">
        <g transform="translate(-3.844067796610173,-3.844067796610173) scale(2.820338983050848)" vector-effect="non-scaling-stroke" stroke-width="2.43" stroke-linecap="round" stroke-linejoin="round" stroke-opacity="1.0">
          <path d="M19.07 4.93A10 10 0 0 0 6.99 3.34" vector-effect="non-scaling-stroke" fill="none" stroke="#f1f5f9"/>
          <path d="M4 6h.01" vector-effect="non-scaling-stroke" fill="none" stroke="#f1f5f9"/>
          <path d="M2.29 9.62A10 10 0 1 0 21.31 8.35" vector-effect="non-scaling-stroke" fill="none" stroke="#f1f5f9"/>
          <path d="M16.24 7.76A6 6 0 1 0 8.23 16.67" vector-effect="non-scaling-stroke" fill="none" stroke="#f1f5f9"/>
          <path d="M12 18h.01" vector-effect="non-scaling-stroke" fill="none" stroke="#f1f5f9"/>
          <path d="M17.99 11.66A6 6 0 0 1 15.77 16.67" vector-effect="non-scaling-stroke" fill="none" stroke="#f1f5f9"/>
          <circle cx="12" cy="12" r="2" vector-effect="non-scaling-stroke" fill="none" stroke="#f1f5f9"/>
          <path d="m13.41 10.59 5.66-5.66" vector-effect="non-scaling-stroke" fill="none" stroke="#f1f5f9"/>
        </g>
      </g>
      <text id="ITEM_3_HEAD" x="346.0" y="520.0" text-anchor="middle" font-weight="800" font-size="24" fill="var(--primary-text)" data-bg-id="ITEM_3_BG" fill-opacity="1.0" style="font-size: 30px; font-family: Inter, Segoe UI, Kalam, Roboto, Helvetica, Arial, sans-serif; font-weight: 700; letter-spacing:-0.4px;" data-final-font-size="30">
        <tspan x="346.0" dy="29.33px">Chinese Incident</tspan>
      </text>
      <rect id="ITEM_3_HEAD_FRAME" x="206.0" y="520.0" width="280" height="34" fill="none"/>
      <text id="ITEM_3_BODY" x="362.0" y="560.0" text-anchor="middle" font-size="18" fill="var(--primary-text)" data-bg-id="ITEM_3_BG" style="font-size: 25px; font-family: Inter, Segoe UI, Kalam, Roboto, Helvetica, Arial, sans-serif; font-weight: 400;" data-final-font-size="25">
        <tspan x="362.0" dy="20.11px">Large drifting object</tspan>
        <tspan x="362.0" dy="28.75px">became a 2023</tspan>
        <tspan x="362.0" dy="28.75px">security event</tspan>
      </text>
      <rect id="ITEM_3_BODY_FRAME" x="202.0" y="560.0" width="320" height="70" fill="none"/>
    </g>
    <g filter="url(#svg68a988b7-shadow)">
      <line x1="986" y1="742.5" x2="1316.0" y2="742.5" stroke="var(--accent-4)" stroke-width="3.5" opacity="0.84"/>
      <circle cx="960" cy="742.5" r="20" fill="var(--background)" stroke="var(--accent-4)" stroke-width="3.2"/>
      <text x="960" y="748.5" text-anchor="middle" font-size="14" font-weight="800" fill="var(--primary-text)">4</text>
      <rect id="ITEM_4_BG" x="1280" y="664.5" width="470" height="156" rx="22" fill="var(--panel)" fill-opacity="0.97" stroke="var(--accent-4)" stroke-width="3.2"/>
      <rect x="1280" y="664.5" width="470" height="16" rx="8" fill="var(--accent-4)" fill-opacity="0.55"/>
      <circle id="ITEM_4_PAD" cx="1352.0" cy="742.5" r="40" fill="var(--icon-pad-bg)" opacity="0.95" fill-opacity="0.9" stroke-width="2" stroke="var(--primary-text)"/>
      <circle id="ITEM_4_PAD_INNER" cx="1352.0" cy="742.5" r="31.20" fill="var(--accent-2)" fill-opacity="0.22"/>
      <circle cx="1352.0" cy="742.5" r="32" fill="none" stroke="var(--accent-4)" stroke-width="3" stroke-dasharray="6 4"/>
      <g id="ITEM_4_ICON" transform="translate(1322.0, 712.5)" data-icon-size="60" stroke-dasharray="6 4">
        <g transform="translate(-4.3462184873949585,-3.821848739495801) scale(0.13109243697478992)" vector-effect="non-scaling-stroke" fill="#f1f5f9" fill-opacity="1.0" stroke="none">
          <path fill="#f1f5f9" d="M153.03 23.656c-7.817.13-15.85 1.054-24 2.875C28.356 49.033 26.89 199.884 165.563 248.595l-24.875 26.125l50.032 23.592l1.78-43.562c29.715 12.604 48.848 25.695 60.563 39c14.296 16.238 18.538 32.814 18.25 52.75c-.043 2.955-.21 5.976-.47 9.063c-41.823-7.816-76.908 9.98-93.156 36.343c-9.494 15.405-12.62 34.01-6.5 51.188c6.12 17.177 21.345 32.088 45.344 40.937L223 466.5c-20.147-7.43-30.196-18.396-34.22-29.688c-4.02-11.29-2.144-23.753 4.845-35.093c12.075-19.593 39.196-34.915 74.75-27.72c-5.81 33.572-18.25 73.787-19.03 120.844h18.686c.84-42.738 12.676-80.404 18.626-115.375c41.503 15.78 78.795 8.483 102.906-11.626c17.17-14.32 27.544-35.056 28.532-57.28l17.844 30.936l26.375-35.563l-40.22-14c93.154-102.85 24.31-230.453-69.906-205.25c-95.71 25.604-114.367 160.712 46.97 213.657c2.425 20.61-5.843 40.045-21.563 53.156c-18.773 15.656-48.37 22.47-85.063 8.25c-1.106-.43-2.21-.826-3.31-1.22c.438-4.627.714-9.23.78-13.78c.333-23.017-5.476-45.547-22.906-65.344c-14.603-16.585-36.784-31.238-69.375-44.78c104.097-113.053 43.227-214.435-44.69-212.97z" vector-effect="non-scaling-stroke" stroke="none"/>
        </g>
      </g>
      <text id="ITEM_4_HEAD" x="1570.0" y="682.5" text-anchor="middle" font-weight="800" font-size="24" fill="var(--primary-text)" data-bg-id="ITEM_4_BG" fill-opacity="1.0" style="font-size: 30px; font-family: Inter, Segoe UI, Kalam, Roboto, Helvetica, Arial, sans-serif; font-weight: 700; letter-spacing:-0.4px;" data-final-font-size="30">
        <tspan x="1570.0" dy="29.33px">NASA Programs</tspan>
      </text>
      <rect id="ITEM_4_HEAD_FRAME" x="1430.0" y="682.5" width="280" height="34" fill="none"/>
      <text id="ITEM_4_BODY" x="1580.0" y="722.5" text-anchor="middle" font-size="18" fill="var(--primary-text)" data-bg-id="ITEM_4_BG" style="font-size: 25px; font-family: Inter, Segoe UI, Kalam, Roboto, Helvetica, Arial, sans-serif; font-weight: 400;" data-final-font-size="25">
        <tspan x="1580.0" dy="25.86px">Scientific balloons carry</tspan>
        <tspan x="1580.0" dy="28.75px">3,600 kg payloads to 36 km</tspan>
      </text>
      <rect id="ITEM_4_BODY_FRAME" x="1420.0" y="722.5" width="320" height="70" fill="none"/>
    </g>
    <g filter="url(#svg68a988b7-shadow)">
      <line x1="934" y1="905.0" x2="604.0" y2="905.0" stroke="var(--accent-5)" stroke-width="3.5" opacity="0.84"/>
      <circle cx="960" cy="905.0" r="20" fill="var(--background)" stroke="var(--accent-5)" stroke-width="3.2"/>
      <text x="960" y="911.0" text-anchor="middle" font-size="14" font-weight="800" fill="var(--primary-text)">5</text>
      <rect id="ITEM_5_BG" x="170" y="827.0" width="470" height="156" rx="22" fill="var(--panel)" fill-opacity="0.97" stroke="var(--accent-5)" stroke-width="3.2"/>
      <rect x="170" y="827.0" width="470" height="16" rx="8" fill="var(--accent-5)" fill-opacity="0.55"/>
      <circle id="ITEM_5_PAD" cx="568.0" cy="905.0" r="40" fill="var(--icon-pad-bg)" opacity="0.95" fill-opacity="0.9" stroke-width="2" stroke="var(--primary-text)"/>
      <circle id="ITEM_5_PAD_INNER" cx="568.0" cy="905.0" r="31.20" fill="var(--accent-3)" fill-opacity="0.22"/>
      <circle cx="568.0" cy="905.0" r="32" fill="none" stroke="var(--accent-5)" stroke-width="3" stroke-dasharray="6 4"/>
      <g id="ITEM_5_ICON" transform="translate(538.0, 875.0)" data-icon-size="60" stroke-dasharray="6 4">
        <g transform="translate(-4.133333333333342,-3.8666666666666734) scale(0.13333333333333336)" vector-effect="non-scaling-stroke" fill="#f1f5f9" fill-opacity="1.0" stroke="none">
          <path fill="#f1f5f9" d="M256 21c-66.72 0-121 54.28-121 121s54.28 121 121 121s121-54.28 121-121S322.72 21 256 21m0 18c56.992 0 103 46.008 103 103s-46.008 103-103 103s-103-46.008-103-103S199.008 39 256 39m0 11.75l-69.4 52.05l10.8 14.4L256 73.25l58.6 43.95l10.8-14.4zm0 48l-69.4 52.05l10.8 14.4l58.6-43.95l58.6 43.95l10.8-14.4zm0 48l-69.4 52.05l10.8 14.4l58.6-43.95l58.6 43.95l10.8-14.4zM53.562 185l-7 14h66.876l-7-14zm352 0l-7 14h66.875l-7-14zM41 217v46h78v-46zm352 0v46h78v-46zM64 231h32v18H64zm352 0h32v18h-32zM38.486 281l-10 30h455.028l-10-30zM25 329v158h199v-87h64v87h199V329zm55 14h32v18H80zm80 0h32v18h-32zm80 0h32v18h-32zm80 0h32v18h-32zm80 0h32v18h-32z" vector-effect="non-scaling-stroke" stroke="none"/>
        </g>
      </g>
      <text id="ITEM_5_HEAD" x="346.0" y="845.0" text-anchor="middle" font-weight="800" font-size="24" fill="var(--accent-3)" data-bg-id="ITEM_5_BG" fill-opacity="1.0" style="font-size: 30px; font-family: Inter, Segoe UI, Kalam, Roboto, Helvetica, Arial, sans-serif; font-weight: 700; letter-spacing:-0.4px;" data-final-font-size="30">
        <tspan x="346.0" dy="29.33px">Modern AARO Cases</tspan>
      </text>
      <rect id="ITEM_5_HEAD_FRAME" x="206.0" y="845.0" width="280" height="34" fill="none"/>
      <text id="ITEM_5_BODY" x="362.0" y="885.0" text-anchor="middle" font-size="18" fill="var(--primary-text)" data-bg-id="ITEM_5_BG" style="font-size: 25px; font-family: Inter, Segoe UI, Kalam, Roboto, Helvetica, Arial, sans-serif; font-weight: 400;" data-final-font-size="25">
        <tspan x="362.0" dy="20.11px">Military sensors confirm</tspan>
        <tspan x="362.0" dy="28.75px">balloons in 2022</tspan>
        <tspan x="362.0" dy="28.75px">Europe cases</tspan>
      </text>
      <rect id="ITEM_5_BODY_FRAME" x="202.0" y="885.0" width="320" height="70" fill="none"/>
    </g>
  </g>
</svg>
