<?xml version='1.0' encoding='utf-8'?>
<svg xmlns="http://www.w3.org/2000/svg" width="1920" height="1080" viewBox="0 0 1920 1080" data-theme="dark">
  <style>
        @font-face {
            font-family: 'Inter';
            src: url('assets/fonts/Inter-Regular.ttf') format('truetype');
            font-weight: 400;
            font-style: normal;
            font-display: swap;
        }
        @font-face {
            font-family: 'Inter';
            src: url('assets/fonts/Inter-Bold.ttf') format('truetype');
            font-weight: 600;
            font-style: normal;
            font-display: swap;
        }
        @font-face {
            font-family: 'Inter';
            src: url('assets/fonts/Inter-Bold.ttf') format('truetype');
            font-weight: 800;
            font-style: normal;
            font-display: swap;
        }
        
:root {
    --background: #0f172a;
    --panel: #1e293b;
    --primary-text: #f1f5f9;
    --muted-text: #94a3b8;
    --inverse-text: #0f172a;
    --border: #334155;
    --shadow-color: #000000;
    --icon-pad-bg: #1e293b;
    --art-glow: #7dd3fc;
    --art-glow-opacity: 0.18;
    --art-sheen: #ffffff;
    --art-sheen-opacity: 0.18;
    --art-shadow: #000000;
    --art-shadow-opacity: 0.28;
    --art-muted-line: #64748b;
    --art-panel-tint: #1e293b;
    --font-family: 'Inter', 'Segoe UI', 'Kalam', Roboto, Helvetica, Arial, sans-serif;
    --radius-xl: 16px;
    --font-family-headline: 'Inter', 'Segoe UI', 'Kalam', Roboto, Helvetica, Arial, sans-serif;
    --font-family-body: 'Inter', 'Segoe UI', 'Kalam', Roboto, Helvetica, Arial, sans-serif;
    --font-heading: 'Inter', 'Segoe UI', 'Kalam', Roboto, Helvetica, Arial, sans-serif;
    --font-body: 'Inter', 'Segoe UI', 'Kalam', Roboto, Helvetica, Arial, sans-serif;
    --font-size-h1: 56px;
    --font-size-h2: 40px;
    --font-size-h3: 28px;
    --font-size-body: 24px;
    --font-size-caption: 18px;
    --secondary-text: var(--muted-text);
    --panel-border: var(--border);
    --font-weight-normal: 400;
    --font-weight-medium: 500;
    --font-weight-semibold: 600;
    --font-weight-bold: 700;
    --spacing-gutter-pct: 0.07;
    --spacing-top-pct: 0.15;
    --spacing-bottom-pct: 0.07;
    --spacing-title-y-pct: 0.055;
    --accent-1: #93c5fd;
    --accent-2: #86efac;
    --accent-3: #fcd34d;
    --accent-4: #f9a8d4;
    --accent-5: #c4b5fd;
    --accent-6: #a5f3fc;
}
:root[data-theme="dark"] {
    --background: #0f172a;
    --panel: #1e293b;
    --primary-text: #f1f5f9;
    --muted-text: #94a3b8;
    --inverse-text: #0f172a;
    --border: #334155;
    --shadow-color: #000000;
    --icon-pad-bg: #1e293b;
    --art-glow: #7dd3fc;
    --art-glow-opacity: 0.18;
    --art-sheen: #ffffff;
    --art-sheen-opacity: 0.18;
    --art-shadow: #000000;
    --art-shadow-opacity: 0.28;
    --art-muted-line: #64748b;
    --art-panel-tint: #1e293b;
    --accent-1: #93c5fd;
    --accent-2: #86efac;
    --accent-3: #fcd34d;
    --accent-4: #f9a8d4;
    --accent-5: #c4b5fd;
    --accent-6: #a5f3fc;
}
:root[data-theme="light"] {
    --background: #f8fafc;
    --panel: #ffffff;
    --primary-text: #0f172a;
    --muted-text: #64748b;
    --inverse-text: #ffffff;
    --border: #e2e8f0;
    --shadow-color: #000000;
    --icon-pad-bg: #1e293b;
    --art-glow: #0891b2;
    --art-glow-opacity: 0.10;
    --art-sheen: #ffffff;
    --art-sheen-opacity: 0.34;
    --art-shadow: #0f172a;
    --art-shadow-opacity: 0.14;
    --art-muted-line: #94a3b8;
    --art-panel-tint: #f1f5f9;
    --accent-1: #3b82f6;
    --accent-2: #22c55e;
    --accent-3: #f59e0b;
    --accent-4: #ec4899;
    --accent-5: #8b5cf6;
    --accent-6: #06b6d4;
}</style>
  <rect x="0" y="0" width="1.92E+3" height="1.08E+3" fill="#252a34" stroke="none" id="programmatic_background"/>
  <line id="HEADER_DECOR" x1="960.0" x2="1080.0" y1="135.0" y2="135.0" stroke="var(--accent-1)" stroke-width="6" stroke-linecap="round"/>
  <defs>
    <pattern id="svg0bfa5b99-napkin-hatch" patternUnits="userSpaceOnUse" width="12" height="12">
      <path d="M -3 12 L 12 -3 M 0 15 L 15 0" fill="none" stroke="var(--primary-text)" stroke-width="1" stroke-opacity="0.05"/>
    </pattern>
    <filter id="svg0bfa5b99-soft-shadow" x="-30%" y="-30%" width="160%" height="160%">
      <feDropShadow dx="0" dy="3" stdDeviation="6" flood-color="#000000" flood-opacity="0.20"/>
    </filter>
    <radialGradient id="svg0bfa5b99-universal-edge-vignette" cx="50%" cy="50%" r="72%">
      <stop offset="0%" stop-color="var(--background)" stop-opacity="0"/>
      <stop offset="72%" stop-color="var(--background)" stop-opacity="0.12"/>
      <stop offset="100%" stop-color="var(--primary-text)" stop-opacity="0.08"/>
    </radialGradient>
    <linearGradient id="svg0bfa5b99-universal-surface-sheen" x1="0%" y1="0%" x2="100%" y2="100%">
      <stop offset="0%" stop-color="var(--art-sheen)" stop-opacity="var(--art-sheen-opacity)"/>
      <stop offset="46%" stop-color="var(--art-sheen)" stop-opacity="0.035"/>
      <stop offset="100%" stop-color="var(--art-panel-tint)" stop-opacity="0.14"/>
    </linearGradient>
    <radialGradient id="svg0bfa5b99-universal-icon-aura" cx="50%" cy="42%" r="64%">
      <stop offset="0%" stop-color="var(--art-glow)" stop-opacity="var(--art-glow-opacity)"/>
      <stop offset="100%" stop-color="var(--background)" stop-opacity="0"/>
    </radialGradient>
    <filter id="svg0bfa5b99-text-glow" x="-20%" y="-20%" width="140%" height="140%">
      <feDropShadow dx="0" dy="0" stdDeviation="2" flood-color="#000000" flood-opacity="0.4"/>
    </filter>
    <filter id="svg0bfa5b99-shadow" x="-30%" y="-30%" width="160%" height="160%">
      <feDropShadow dx="0" dy="2" stdDeviation="3" flood-color="#000000" flood-opacity="0.08"/>
      <feDropShadow dx="0" dy="6" stdDeviation="10" flood-color="#000000" flood-opacity="0.12"/>
    </filter>
    <marker id="svg0bfa5b99-arrowhead" markerWidth="10" markerHeight="7" refX="9" refY="3.5" orient="auto" markerUnits="strokeWidth">
      <polygon points="0 0, 10 3.5, 0 7" fill="var(--muted-text)" opacity="0.6"/>
    </marker>
  </defs>
  <rect id="CANVAS_BG" width="100%" height="100%" fill="var(--background)"/>
  <rect width="100%" height="100%" fill="url(#svg0bfa5b99-napkin-hatch)"/>
  <rect id="UNIVERSAL_EDGE_VIGNETTE" width="100%" height="100%" fill="url(#svg0bfa5b99-universal-edge-vignette)" opacity="0.62"/>
  <text id="TITLE" x="960.0" y="59" text-anchor="middle" font-size="56" font-weight="800" fill="#f1f5f9" style="font-size: 60px; font-family: Inter, Segoe UI, Kalam, Roboto, Helvetica, Arial, sans-serif; font-weight: 700; letter-spacing:-1.2px;" data-final-font-size="60">
    <tspan x="960.0" dy="68.00px">Drone Perception and Visual Distortion</tspan>
  </text>
  <rect id="TITLE_FRAME" x="134" y="59" width="1652" height="103" fill="none"/>
  <line x1="687.0" y1="434.0" x2="768.0" y2="434.0" stroke="var(--muted-text)" stroke-width="4" stroke-dasharray="10 9" opacity="0.8"/>
  <circle cx="727.5" cy="434.0" r="34" fill="var(--panel)" stroke="var(--muted-text)" stroke-width="2"/>
  <text x="727.5" y="444.0" text-anchor="middle" font-size="34" font-weight="900" fill="var(--muted-text)">VS</text>
  <line x1="1152.0" y1="434.0" x2="1233.0" y2="434.0" stroke="var(--muted-text)" stroke-width="4" stroke-dasharray="10 9" opacity="0.8"/>
  <circle cx="1192.5" cy="434.0" r="34" fill="var(--panel)" stroke="var(--muted-text)" stroke-width="2"/>
  <text x="1192.5" y="444.0" text-anchor="middle" font-size="34" font-weight="900" fill="var(--muted-text)">VS</text>
  <line x1="882.0" y1="824.0" x2="1038.0" y2="824.0" stroke="var(--muted-text)" stroke-width="4" stroke-dasharray="10 9" opacity="0.8"/>
  <circle cx="960.0" cy="824.0" r="34" fill="var(--panel)" stroke="var(--muted-text)" stroke-width="2"/>
  <text x="960.0" y="834.0" text-anchor="middle" font-size="34" font-weight="900" fill="var(--muted-text)">VS</text>
  <g transform="translate(495.0, 280.0)" filter="url(#svg0bfa5b99-soft-shadow)">
    <rect id="ITEM_1_BG" x="-200.0" y="0" width="400.0" height="360" rx="26" fill="var(--panel)" fill-opacity="0.95" stroke="var(--accent-1)" stroke-width="3"/>
    <rect x="-184.0" y="12" width="368.0" height="8" rx="4" fill="var(--accent-1)" fill-opacity="0.55"/>
    <circle id="ITEM_1_PAD" cx="0" cy="74" r="46" fill="var(--icon-pad-bg)" stroke="var(--primary-text)" opacity="0.9" fill-opacity="0.9" stroke-width="2"/>
    <circle id="ITEM_1_PAD_INNER" cx="0" cy="74" r="35.88" fill="var(--accent-3)" fill-opacity="0.22"/>
    <circle cx="0" cy="74" r="36" fill="none" stroke="var(--accent-1)" stroke-width="3" stroke-dasharray="6 4"/>
    <g id="ITEM_1_ICON" transform="translate(-34, 40)" data-icon-size="68" stroke-dasharray="6 4">
      <g transform="translate(-6.007787610619474,-6.960353982300888) scale(2.540176991150443)">
        <path d="M17.6512 22.27H13.7612C12.9712 22.27 12.3212 22.91 12.3312 23.7V27.59C12.3312 28.38 12.9712 29.02 13.7612 29.02H14.0093C14.3418 29.6109 14.9749 30.01 15.7012 30.01C16.4275 30.01 17.0605 29.6109 17.393 29.02H17.6512C18.4412 29.02 19.0812 28.38 19.0812 27.59V23.7C19.0812 22.91 18.4412 22.27 17.6512 22.27Z" fill="#9B9B9B"/>
        <path d="M18.1611 23.13C18.4011 23.13 18.5911 22.95 18.6111 22.72C18.6811 21.86 19.0511 19.77 21.0711 17.53C22.9611 16.04 24.2111 13.78 24.3611 11.22C24.3811 10.98 24.3911 10.82 24.3911 10.72V10.71V10.7C24.3911 10.65 24.3911 10.62 24.3911 10.62C24.3311 5.84 20.4611 2 15.6911 2C10.9211 2 7.05111 5.84 7.00111 10.6C7.00111 10.6 6.99111 10.84 7.03111 11.24C7.19111 13.78 8.43111 16.03 10.3211 17.52C12.3411 19.77 12.7411 21.86 12.8111 22.72C12.8311 22.95 13.0211 23.13 13.2611 23.13H18.1611Z" fill="#FCD53F"/>
        <path d="M15.7011 10.7C17.3211 10.7 18.6411 12.01 18.6611 13.63V13.71C18.6611 13.74 18.6611 13.78 18.6511 13.84C18.6011 14.68 18.1911 15.47 17.5311 15.99L17.4611 16.04L17.4011 16.1C16.3011 17.32 16.0711 20.42 16.0311 22.12H15.3811C15.3311 20.42 15.0911 17.32 13.9911 16.1L13.9311 16.04L13.8611 15.99C13.2011 15.47 12.7911 14.69 12.7411 13.82C12.7411 13.78 12.7311 13.75 12.7311 13.73V13.64C12.7611 12.02 14.0911 10.7 15.7011 10.7ZM15.7011 9.69995C13.5311 9.69995 11.7611 11.45 11.7411 13.62C11.7411 13.62 11.7411 13.73 11.7511 13.91C11.8211 15.07 12.3911 16.09 13.2511 16.77C14.4511 18.11 14.3911 23.13 14.3911 23.13H17.0311C17.0311 23.13 16.9511 18.11 18.1611 16.78C19.0211 16.1 19.5911 15.07 19.6611 13.9C19.6711 13.79 19.6711 13.72 19.6711 13.67C19.6711 13.65 19.6711 13.63 19.6711 13.63C19.6411 11.45 17.8811 9.69995 15.7011 9.69995Z" fill="#FFB02E"/>
        <path d="M19.1674 25.0525C19.4394 25.0049 19.6213 24.7458 19.5737 24.4738C19.526 24.2018 19.2669 24.0199 18.9949 24.0675L12.2549 25.2475C11.9829 25.2951 11.801 25.5542 11.8486 25.8262C11.8963 26.0983 12.1554 26.2801 12.4274 26.2325L19.1674 25.0525ZM19.1178 27.2025C19.3897 27.1546 19.5714 26.8954 19.5236 26.6234C19.4757 26.3514 19.2165 26.1698 18.9445 26.2176L12.2945 27.3876C12.0225 27.4355 11.8408 27.6947 11.8887 27.9667C11.9365 28.2386 12.1958 28.4203 12.4678 28.3725L19.1178 27.2025Z" fill="#D3D3D3"/>
        <path d="M13.7912 5.43997C12.6812 7.35997 13.2412 9.75997 15.0412 10.79C16.8412 11.82 19.1912 11.11 20.3012 9.18997C21.4112 7.26997 20.8512 4.86997 19.0512 3.83997C17.2512 2.80997 14.9012 3.51997 13.7912 5.43997Z" fill="#FFF478"/>
      </g>
    </g>
    <text id="ITEM_1_HEAD" x="0.0" y="138.0" text-anchor="middle" font-size="44" font-weight="800" fill="var(--accent-3)" data-bg-id="ITEM_1_BG" fill-opacity="1.0" stroke="none" style="font-size: 30px; font-family: Inter, Segoe UI, Kalam, Roboto, Helvetica, Arial, sans-serif; font-weight: 700; letter-spacing:-0.4px;" data-final-font-size="30">
      <tspan x="0.0" dy="42.25px">Visible Lights</tspan>
    </text>
    <rect id="ITEM_1_HEAD_FRAME" x="-165.0" y="138" width="330.0" height="68" fill="none"/>
    <text id="ITEM_1_BODY" x="0.0" y="206.0" text-anchor="middle" font-size="27" fill="var(--primary-text)" data-bg-id="ITEM_1_BG" style="font-size: 26px; font-family: Inter, Segoe UI, Kalam, Roboto, Helvetica, Arial, sans-serif; font-weight: 400;" data-final-font-size="26">
      <tspan x="0.0" dy="39.64px">Observers see only bright</tspan>
      <tspan x="0.0" dy="29.90px">points of light at night</tspan>
    </text>
    <rect id="ITEM_1_BODY_FRAME" x="-190.0" y="206" width="380" height="154" fill="none"/>
  </g>
  <g transform="translate(960.0, 280.0)" filter="url(#svg0bfa5b99-soft-shadow)">
    <rect id="ITEM_2_BG" x="-200.0" y="0" width="400.0" height="360" rx="26" fill="var(--panel)" fill-opacity="0.95" stroke="var(--accent-2)" stroke-width="3"/>
    <rect x="-184.0" y="12" width="368.0" height="8" rx="4" fill="var(--accent-2)" fill-opacity="0.55"/>
    <circle id="ITEM_2_PAD" cx="0" cy="74" r="46" fill="var(--icon-pad-bg)" stroke="var(--primary-text)" opacity="0.9" fill-opacity="0.9" stroke-width="2"/>
    <circle id="ITEM_2_PAD_INNER" cx="0" cy="74" r="35.88" fill="var(--accent-4)" fill-opacity="0.22"/>
    <circle cx="0" cy="74" r="36" fill="none" stroke="var(--accent-2)" stroke-width="3" stroke-dasharray="6 4"/>
    <g id="ITEM_2_ICON" transform="translate(-34, 40)" data-icon-size="68" stroke-dasharray="6 4">
      <g transform="translate(-4.920677966101698,-4.920677966101696) scale(3.243389830508475)" vector-effect="non-scaling-stroke" stroke-width="2.53" stroke-linecap="round" stroke-linejoin="round" stroke-opacity="1.0">
        <path d="M10 10h4" vector-effect="non-scaling-stroke" fill="none" stroke="#f1f5f9"/>
        <path d="M19 7V4a1 1 0 0 0-1-1h-2a1 1 0 0 0-1 1v3" vector-effect="non-scaling-stroke" fill="none" stroke="#f1f5f9"/>
        <path d="M20 21a2 2 0 0 0 2-2v-3.851c0-1.39-2-2.962-2-4.829V8a1 1 0 0 0-1-1h-4a1 1 0 0 0-1 1v11a2 2 0 0 0 2 2z" vector-effect="non-scaling-stroke" fill="none" stroke="#f1f5f9"/>
        <path d="M 22 16 L 2 16" vector-effect="non-scaling-stroke" fill="none" stroke="#f1f5f9"/>
        <path d="M4 21a2 2 0 0 1-2-2v-3.851c0-1.39 2-2.962 2-4.829V8a1 1 0 0 1 1-1h4a1 1 0 0 1 1 1v11a2 2 0 0 1-2 2z" vector-effect="non-scaling-stroke" fill="none" stroke="#f1f5f9"/>
        <path d="M9 7V4a1 1 0 0 0-1-1H6a1 1 0 0 0-1 1v3" vector-effect="non-scaling-stroke" fill="none" stroke="#f1f5f9"/>
      </g>
    </g>
    <text id="ITEM_2_HEAD" x="0.0" y="138.0" text-anchor="middle" font-size="44" font-weight="800" fill="var(--accent-4)" data-bg-id="ITEM_2_BG" fill-opacity="1.0" stroke="none" style="font-size: 30px; font-family: Inter, Segoe UI, Kalam, Roboto, Helvetica, Arial, sans-serif; font-weight: 700; letter-spacing:-0.4px;" data-final-font-size="30">
      <tspan x="0.0" dy="42.25px">Distance Uncertainty</tspan>
    </text>
    <rect id="ITEM_2_HEAD_FRAME" x="-165.0" y="138" width="330.0" height="68" fill="none"/>
    <text id="ITEM_2_BODY" x="0.0" y="206.0" text-anchor="middle" font-size="27" fill="var(--primary-text)" data-bg-id="ITEM_2_BG" style="font-size: 26px; font-family: Inter, Segoe UI, Kalam, Roboto, Helvetica, Arial, sans-serif; font-weight: 400;" data-final-font-size="26">
      <tspan x="0.0" dy="39.64px">Human eyes struggle to judge</tspan>
      <tspan x="0.0" dy="29.90px">range of isolated lights</tspan>
    </text>
    <rect id="ITEM_2_BODY_FRAME" x="-190.0" y="206" width="380" height="154" fill="none"/>
  </g>
  <g transform="translate(1425.0, 280.0)" filter="url(#svg0bfa5b99-soft-shadow)">
    <rect id="ITEM_3_BG" x="-200.0" y="0" width="400.0" height="360" rx="26" fill="var(--panel)" fill-opacity="0.95" stroke="var(--accent-3)" stroke-width="3"/>
    <rect x="-184.0" y="12" width="368.0" height="8" rx="4" fill="var(--accent-3)" fill-opacity="0.55"/>
    <circle id="ITEM_3_PAD" cx="0" cy="74" r="46" fill="var(--icon-pad-bg)" stroke="var(--primary-text)" opacity="0.9" fill-opacity="0.9" stroke-width="2"/>
    <circle id="ITEM_3_PAD_INNER" cx="0" cy="74" r="35.88" fill="var(--accent-5)" fill-opacity="0.22"/>
    <circle cx="0" cy="74" r="36" fill="none" stroke="var(--accent-3)" stroke-width="3" stroke-dasharray="6 4"/>
    <g id="ITEM_3_ICON" transform="translate(-34, 40)" data-icon-size="68" stroke-dasharray="6 4">
      <g transform="translate(-8.524444444444448,-8.524444444444448) scale(3.543703703703704)" vector-effect="non-scaling-stroke" stroke-width="2.53" stroke-linecap="round" stroke-linejoin="round" stroke-opacity="1.0">
        <path d="M3 14h3a2 2 0 0 1 2 2v3a2 2 0 0 1-2 2H5a2 2 0 0 1-2-2v-7a9 9 0 0 1 18 0v7a2 2 0 0 1-2 2h-1a2 2 0 0 1-2-2v-3a2 2 0 0 1 2-2h3" vector-effect="non-scaling-stroke" fill="none" stroke="#f1f5f9"/>
      </g>
    </g>
    <text id="ITEM_3_HEAD" x="0.0" y="138.0" text-anchor="middle" font-size="44" font-weight="800" fill="var(--accent-5)" data-bg-id="ITEM_3_BG" fill-opacity="1.0" stroke="none" style="font-size: 30px; font-family: Inter, Segoe UI, Kalam, Roboto, Helvetica, Arial, sans-serif; font-weight: 700; letter-spacing:-0.4px;" data-final-font-size="30">
      <tspan x="0.0" dy="42.25px">Silent Operation</tspan>
    </text>
    <rect id="ITEM_3_HEAD_FRAME" x="-165.0" y="138" width="330.0" height="68" fill="none"/>
    <text id="ITEM_3_BODY" x="0.0" y="206.0" text-anchor="middle" font-size="27" fill="var(--primary-text)" data-bg-id="ITEM_3_BG" style="font-size: 26px; font-family: Inter, Segoe UI, Kalam, Roboto, Helvetica, Arial, sans-serif; font-weight: 400;" data-final-font-size="26">
      <tspan x="0.0" dy="39.64px">Buzzing noises diminish</tspan>
      <tspan x="0.0" dy="29.90px">rapidly over distance and wind</tspan>
    </text>
    <rect id="ITEM_3_BODY_FRAME" x="-190.0" y="206" width="380" height="154" fill="none"/>
  </g>
  <g transform="translate(690.0, 670.0)" filter="url(#svg0bfa5b99-soft-shadow)">
    <rect id="ITEM_4_BG" x="-200.0" y="0" width="400.0" height="360" rx="26" fill="var(--panel)" fill-opacity="0.95" stroke="var(--accent-4)" stroke-width="3"/>
    <rect x="-184.0" y="12" width="368.0" height="8" rx="4" fill="var(--accent-4)" fill-opacity="0.55"/>
    <circle id="ITEM_4_PAD" cx="0" cy="74" r="46" fill="var(--icon-pad-bg)" stroke="var(--primary-text)" opacity="0.9" fill-opacity="0.9" stroke-width="2"/>
    <circle id="ITEM_4_PAD_INNER" cx="0" cy="74" r="35.88" fill="var(--accent-6)" fill-opacity="0.22"/>
    <circle cx="0" cy="74" r="36" fill="none" stroke="var(--accent-4)" stroke-width="3" stroke-dasharray="6 4"/>
    <g id="ITEM_4_ICON" transform="translate(-34, 40)" data-icon-size="68" stroke-dasharray="6 4">
      <g transform="translate(-5.724285714285717,-6.685357142857151) scale(2.562857142857143)">
        <path d="M14.3675 5.87431L10.6615 3.30015C10.2652 3.02489 9.72534 3.12861 9.44275 3.51981L1.77125 14.5646C1.496 14.9609 1.59462 15.5081 1.99091 15.7833L5.69698 18.3575C6.09327 18.6328 6.64046 18.5341 6.91571 18.1378L14.5872 7.09304C14.8625 6.69675 14.7638 6.14956 14.3675 5.87431ZM16.6809 25.9761L20.3869 28.5502C20.7832 28.8255 21.3253 28.7342 21.6006 28.3379L29.272 17.2931C29.5473 16.8968 29.4487 16.3496 29.0524 16.0744L25.3463 13.5002C24.95 13.225 24.4028 13.3236 24.1276 13.7199L16.4612 24.7573C16.1859 25.1536 16.2846 25.7008 16.6809 25.9761Z" fill="#635994"/>
        <path d="M21.4869 12.9951L19.3688 10.6316L16.2031 9.32501L15.1836 10.7928L17.5195 13.2275L20.4675 14.4628L21.4869 12.9951Z" fill="#998EA4"/>
        <path d="M12.4766 13.2646L11.0088 12.2451L10.4991 12.979L11.9668 13.9985L12.4766 13.2646ZM19.0888 17.8571L20.5566 18.8765L20.0468 19.6104L18.5791 18.5909L19.0888 17.8571ZM13.5848 19.4848L12.8509 18.9751L11.3217 21.1767L12.0556 21.6865L13.5848 19.4848ZM9.29531 24.1097L10.0365 24.6246L8.50732 26.8262L7.76611 26.3114L9.29531 24.1097Z" fill="#1C1C1C"/>
        <path d="M12.5996 6.82217L10.3979 5.29297L8.86874 7.49459L11.0704 9.02379L12.5996 6.82217ZM7.84939 8.96277L10.051 10.492L8.52181 12.6936L6.32019 11.1644L7.84939 8.96277ZM7.50231 14.1613L5.30069 12.6321L3.77148 14.8337L5.97311 16.3629L7.50231 14.1613ZM25.0828 15.4929L27.2844 17.0221L25.7552 19.2237L23.5536 17.6945L25.0828 15.4929ZM22.5342 19.1624L24.7358 20.6916L23.2066 22.8932L21.005 21.364L22.5342 19.1624ZM22.1872 24.3606L19.9855 22.8314L18.4563 25.033L20.658 26.5622L22.1872 24.3606Z" fill="#BCA4EB"/>
        <path d="M16.1371 9.27938L21.5458 13.0361C21.876 13.2655 22.3311 13.1899 22.5531 12.8546L23.2514 11.8492C23.4808 11.5189 23.4001 11.0712 23.0699 10.8418L17.6612 7.0851C17.331 6.85572 16.8833 6.9364 16.6539 7.26665L15.9556 8.27206C15.7262 8.6023 15.8069 9.05 16.1371 9.27938ZM8.98669 27.7029C8.56441 28.3108 7.72923 28.4613 7.12127 28.0391C6.51331 27.6168 6.36279 26.7816 6.78506 26.1737C7.20734 25.5657 8.04251 25.4152 8.65048 25.8374C9.25844 26.2597 9.40896 27.0949 8.98669 27.7029ZM12.3559 26.2356L6.9766 22.4993C6.40418 22.1017 6.3806 21.2585 6.9266 20.8327C8.43104 19.6691 10.5674 19.5537 12.2112 20.6955C13.8551 21.8373 14.4928 23.8795 13.9278 25.6955C13.7216 26.3683 12.9283 26.6332 12.3559 26.2356ZM10.5301 17.3519L15.9387 21.1087C16.269 21.3381 16.724 21.2625 16.946 20.9271L20.7028 15.5185C20.9322 15.1882 20.8515 14.7405 20.5212 14.5111L15.1126 10.7544C14.7823 10.525 14.3346 10.6057 14.1053 10.936L10.3485 16.3446C10.1191 16.6749 10.1998 17.1226 10.5301 17.3519Z" fill="#B4ACBC"/>
      </g>
    </g>
    <text id="ITEM_4_HEAD" x="0.0" y="138.0" text-anchor="middle" font-size="44" font-weight="800" fill="var(--accent-6)" data-bg-id="ITEM_4_BG" fill-opacity="1.0" stroke="none" style="font-size: 30px; font-family: Inter, Segoe UI, Kalam, Roboto, Helvetica, Arial, sans-serif; font-weight: 700; letter-spacing:-0.4px;" data-final-font-size="30">
      <tspan x="0.0" dy="42.25px">GPS Correction</tspan>
    </text>
    <rect id="ITEM_4_HEAD_FRAME" x="-165.0" y="138" width="330.0" height="68" fill="none"/>
    <text id="ITEM_4_BODY" x="0.0" y="206.0" text-anchor="middle" font-size="27" fill="var(--primary-text)" data-bg-id="ITEM_4_BG" style="font-size: 26px; font-family: Inter, Segoe UI, Kalam, Roboto, Helvetica, Arial, sans-serif; font-weight: 400;" data-final-font-size="26">
      <tspan x="0.0" dy="33.66px">Flight controllers make rapid</tspan>
      <tspan x="0.0" dy="29.90px">micro-adjustments to</tspan>
      <tspan x="0.0" dy="29.90px">maintain position</tspan>
    </text>
    <rect id="ITEM_4_BODY_FRAME" x="-190.0" y="206" width="380" height="154" fill="none"/>
  </g>
  <g transform="translate(1230.0, 670.0)" filter="url(#svg0bfa5b99-soft-shadow)">
    <rect id="ITEM_5_BG" x="-200.0" y="0" width="400.0" height="360" rx="26" fill="var(--panel)" fill-opacity="0.95" stroke="var(--accent-5)" stroke-width="3"/>
    <rect x="-184.0" y="12" width="368.0" height="8" rx="4" fill="var(--accent-5)" fill-opacity="0.55"/>
    <circle id="ITEM_5_PAD" cx="0" cy="74" r="46" fill="var(--icon-pad-bg)" stroke="var(--primary-text)" opacity="0.9" fill-opacity="0.9" stroke-width="2"/>
    <circle id="ITEM_5_PAD_INNER" cx="0" cy="74" r="35.88" fill="var(--accent-1)" fill-opacity="0.22"/>
    <circle cx="0" cy="74" r="36" fill="none" stroke="var(--accent-5)" stroke-width="3" stroke-dasharray="6 4"/>
    <g id="ITEM_5_ICON" transform="translate(-34, 40)" data-icon-size="68" stroke-dasharray="6 4">
      <g transform="translate(-7.005714285714291,-7.005714285714289) scale(2.562857142857143)">
        <path fill-rule="evenodd" clip-rule="evenodd" d="M11.0288 18.7533C11.5295 16.6032 13.5621 15 15.9953 15C18.4284 15 20.4611 16.6032 20.9718 18.7533C21.1019 19.3285 20.7715 19.9132 20.2008 20.1583C17.5273 21.2806 14.4733 21.2806 11.7998 20.1583C11.2191 19.9132 10.8986 19.3285 11.0288 18.7533ZM4 23.0493V19.0001C4.00002 19.3563 4.1858 19.7125 4.55732 19.8855L15.0912 24.8015L15.0912 24.8015C15.6636 25.0662 16.3364 25.0662 16.9088 24.8015L27.4427 19.8855C27.8142 19.7125 28 19.3563 28 19V23.0493C28 24.2312 27.2968 25.2968 26.1817 25.7908L17.311 29.7239C16.4772 30.092 15.5228 30.092 14.689 29.7239L5.81833 25.7908C4.71327 25.2968 4 24.2312 4 23.0493Z" fill="#533566"/>
        <path d="M4.55732 18.1145L15.0912 13.1985C15.6636 12.9338 16.3264 12.9338 16.9088 13.1985L27.4427 18.1145C28.1858 18.4606 28.1858 19.5395 27.4427 19.8855L16.9088 24.8015C16.3364 25.0662 15.6636 25.0662 15.0912 24.8015L4.55732 19.8855C3.81423 19.5395 3.81423 18.4606 4.55732 18.1145ZM11.0288 18.7533C10.8986 19.3285 11.2191 19.9132 11.7998 20.1583C14.4733 21.2806 17.5273 21.2806 20.2008 20.1583C20.7715 19.9132 21.1019 19.3285 20.9718 18.7533C20.4611 16.6032 18.4284 15 15.9953 15C13.5621 15 11.5295 16.6032 11.0288 18.7533Z" fill="#635994"/>
        <path d="M4.13259 18.5C4.22542 18.6602 4.367 18.7969 4.55732 18.8855L15.0912 23.8015C15.6636 24.0661 16.3364 24.0661 16.9088 23.8015L27.4427 18.8855C27.633 18.7969 27.7746 18.6602 27.8674 18.5C28.137 18.9651 27.9954 19.6281 27.4427 19.8855L16.9088 24.8015C16.3364 25.0661 15.6636 25.0661 15.0912 24.8015L4.55732 19.8855C4.00455 19.6281 3.86297 18.9651 4.13259 18.5Z" fill="#6B438B"/>
        <path d="M16 6C16.5523 6 17 6.44772 17 7V15.25C17 15.8023 16.5523 16 16 16C15.4477 16 15 15.8023 15 15.25V7C15 6.44772 15.4477 6 16 6Z" fill="#D3D3D3"/>
        <path d="M20.68 6.67999C20.68 9.26469 18.5847 11.36 16 11.36C13.4153 11.36 11.32 9.26469 11.32 6.67999C11.32 4.0953 13.4153 2 16 2C18.5847 2 20.68 4.0953 20.68 6.67999ZM6.45498 18.76C6.59498 18.12 7.17498 17.63 7.86498 17.63C8.55498 17.63 9.13498 18.12 9.28498 18.76C9.32498 18.93 9.22498 19.11 9.06498 19.18C8.30498 19.52 7.43498 19.52 6.67498 19.18C6.50498 19.11 6.41498 18.93 6.45498 18.76Z" fill="#F8312F"/>
      </g>
    </g>
    <text id="ITEM_5_HEAD" x="0.0" y="138.0" text-anchor="middle" font-size="44" font-weight="800" fill="var(--accent-1)" data-bg-id="ITEM_5_BG" fill-opacity="1.0" stroke="none" style="font-size: 30px; font-family: Inter, Segoe UI, Kalam, Roboto, Helvetica, Arial, sans-serif; font-weight: 700; letter-spacing:-0.4px;" data-final-font-size="30">
      <tspan x="0.0" dy="42.25px">Position Hold</tspan>
    </text>
    <rect id="ITEM_5_HEAD_FRAME" x="-165.0" y="138" width="330.0" height="68" fill="none"/>
    <text id="ITEM_5_BODY" x="0.0" y="206.0" text-anchor="middle" font-size="27" fill="var(--primary-text)" data-bg-id="ITEM_5_BG" style="font-size: 26px; font-family: Inter, Segoe UI, Kalam, Roboto, Helvetica, Arial, sans-serif; font-weight: 400;" data-final-font-size="26">
      <tspan x="0.0" dy="33.66px">Advanced software keeps</tspan>
      <tspan x="0.0" dy="29.90px">aircraft frozen against</tspan>
      <tspan x="0.0" dy="29.90px">wind drift</tspan>
    </text>
    <rect id="ITEM_5_BODY_FRAME" x="-190.0" y="206" width="380" height="154" fill="none"/>
  </g>
</svg>
