<?xml version='1.0' encoding='utf-8'?>
<svg xmlns="http://www.w3.org/2000/svg" width="1920" height="1080" viewBox="0 0 1920 1080" data-theme="light">
  <style>
        @font-face {
            font-family: 'Inter';
            src: url('assets/fonts/Inter-Regular.ttf') format('truetype');
            font-weight: 400;
            font-style: normal;
            font-display: swap;
        }
        @font-face {
            font-family: 'Inter';
            src: url('assets/fonts/Inter-Bold.ttf') format('truetype');
            font-weight: 600;
            font-style: normal;
            font-display: swap;
        }
        @font-face {
            font-family: 'Inter';
            src: url('assets/fonts/Inter-Bold.ttf') format('truetype');
            font-weight: 800;
            font-style: normal;
            font-display: swap;
        }
        
:root {
    --background: #f8fafc;
    --panel: #ffffff;
    --primary-text: #0f172a;
    --muted-text: #64748b;
    --inverse-text: #ffffff;
    --border: #e2e8f0;
    --shadow-color: #000000;
    --icon-pad-bg: #1e293b;
    --art-glow: #0891b2;
    --art-glow-opacity: 0.10;
    --art-sheen: #ffffff;
    --art-sheen-opacity: 0.34;
    --art-shadow: #0f172a;
    --art-shadow-opacity: 0.14;
    --art-muted-line: #94a3b8;
    --art-panel-tint: #f1f5f9;
    --font-family: 'Inter', 'Segoe UI', 'Kalam', Roboto, Helvetica, Arial, sans-serif;
    --radius-xl: 16px;
    --font-family-headline: 'Inter', 'Segoe UI', 'Kalam', Roboto, Helvetica, Arial, sans-serif;
    --font-family-body: 'Inter', 'Segoe UI', 'Kalam', Roboto, Helvetica, Arial, sans-serif;
    --font-heading: 'Inter', 'Segoe UI', 'Kalam', Roboto, Helvetica, Arial, sans-serif;
    --font-body: 'Inter', 'Segoe UI', 'Kalam', Roboto, Helvetica, Arial, sans-serif;
    --font-size-h1: 56px;
    --font-size-h2: 40px;
    --font-size-h3: 28px;
    --font-size-body: 24px;
    --font-size-caption: 18px;
    --secondary-text: var(--muted-text);
    --panel-border: var(--border);
    --font-weight-normal: 400;
    --font-weight-medium: 500;
    --font-weight-semibold: 600;
    --font-weight-bold: 700;
    --spacing-gutter-pct: 0.07;
    --spacing-top-pct: 0.15;
    --spacing-bottom-pct: 0.07;
    --spacing-title-y-pct: 0.055;
    --accent-1: #0891b2;
    --accent-2: #0284c7;
    --accent-3: #2563eb;
    --accent-4: #4f46e5;
    --accent-5: #7c3aed;
    --accent-6: #0d9488;
}
:root[data-theme="dark"] {
    --background: #0f172a;
    --panel: #1e293b;
    --primary-text: #f1f5f9;
    --muted-text: #94a3b8;
    --inverse-text: #0f172a;
    --border: #334155;
    --shadow-color: #000000;
    --icon-pad-bg: #1e293b;
    --art-glow: #7dd3fc;
    --art-glow-opacity: 0.18;
    --art-sheen: #ffffff;
    --art-sheen-opacity: 0.18;
    --art-shadow: #000000;
    --art-shadow-opacity: 0.28;
    --art-muted-line: #64748b;
    --art-panel-tint: #1e293b;
    --accent-1: #22d3ee;
    --accent-2: #38bdf8;
    --accent-3: #60a5fa;
    --accent-4: #818cf8;
    --accent-5: #a78bfa;
    --accent-6: #2dd4bf;
}
:root[data-theme="light"] {
    --background: #f8fafc;
    --panel: #ffffff;
    --primary-text: #0f172a;
    --muted-text: #64748b;
    --inverse-text: #ffffff;
    --border: #e2e8f0;
    --shadow-color: #000000;
    --icon-pad-bg: #1e293b;
    --art-glow: #0891b2;
    --art-glow-opacity: 0.10;
    --art-sheen: #ffffff;
    --art-sheen-opacity: 0.34;
    --art-shadow: #0f172a;
    --art-shadow-opacity: 0.14;
    --art-muted-line: #94a3b8;
    --art-panel-tint: #f1f5f9;
    --accent-1: #0891b2;
    --accent-2: #0284c7;
    --accent-3: #2563eb;
    --accent-4: #4f46e5;
    --accent-5: #7c3aed;
    --accent-6: #0d9488;
}</style>
  <rect x="0" y="0" width="1.92E+3" height="1.08E+3" fill="#252a34" stroke="none" id="programmatic_background"/>
  <line id="HEADER_DECOR" x1="960.0" x2="1080.0" y1="135.0" y2="135.0" stroke="var(--accent-1)" stroke-width="6" stroke-linecap="round"/>
  <defs>
    <pattern id="svgb4a6c244-napkin-hatch" patternUnits="userSpaceOnUse" width="12" height="12">
      <path d="M -3 12 L 12 -3 M 0 15 L 15 0" fill="none" stroke="var(--primary-text)" stroke-width="1" stroke-opacity="0.05"/>
    </pattern>
    <filter id="svgb4a6c244-shadow" x="-30%" y="-30%" width="160%" height="160%">
      <feDropShadow dx="0" dy="2" stdDeviation="3" flood-color="#000000" flood-opacity="0.08"/>
      <feDropShadow dx="0" dy="6" stdDeviation="10" flood-color="#000000" flood-opacity="0.12"/>
    </filter>
    <marker id="svgb4a6c244-arrowhead" markerWidth="10" markerHeight="10" refX="9" refY="5" orient="auto">
      <path d="M 0 0 L 10 5 L 0 10 Z" fill="var(--accent-1)"/>
    </marker>
    <filter id="svgb4a6c244-text-glow" x="-20%" y="-20%" width="140%" height="140%">
      <feDropShadow dx="0" dy="0" stdDeviation="2" flood-color="#000000" flood-opacity="0.4"/>
    </filter>
    <radialGradient id="svgb4a6c244-universal-edge-vignette" cx="50%" cy="50%" r="72%">
      <stop offset="0%" stop-color="var(--background)" stop-opacity="0"/>
      <stop offset="72%" stop-color="var(--background)" stop-opacity="0.12"/>
      <stop offset="100%" stop-color="var(--primary-text)" stop-opacity="0.08"/>
    </radialGradient>
    <linearGradient id="svgb4a6c244-universal-surface-sheen" x1="0%" y1="0%" x2="100%" y2="100%">
      <stop offset="0%" stop-color="var(--art-sheen)" stop-opacity="var(--art-sheen-opacity)"/>
      <stop offset="46%" stop-color="var(--art-sheen)" stop-opacity="0.035"/>
      <stop offset="100%" stop-color="var(--art-panel-tint)" stop-opacity="0.14"/>
    </linearGradient>
    <radialGradient id="svgb4a6c244-universal-icon-aura" cx="50%" cy="42%" r="64%">
      <stop offset="0%" stop-color="var(--art-glow)" stop-opacity="var(--art-glow-opacity)"/>
      <stop offset="100%" stop-color="var(--background)" stop-opacity="0"/>
    </radialGradient>
  </defs>
  <rect width="100%" height="100%" fill="var(--background)" id="CANVAS_BG"/>
  <rect width="100%" height="100%" fill="url(#svgb4a6c244-napkin-hatch)"/>
  <rect id="UNIVERSAL_EDGE_VIGNETTE" width="100%" height="100%" fill="url(#svgb4a6c244-universal-edge-vignette)" opacity="0.62"/>
  <text id="TITLE" x="960.0" y="59" text-anchor="middle" font-weight="800" font-size="56" fill="#0f172a" style="font-size: 60px; font-family: Inter, Segoe UI, Kalam, Roboto, Helvetica, Arial, sans-serif; font-weight: 700; letter-spacing:-1.2px;" data-final-font-size="60">
    <tspan x="960.0" dy="68.00px">Wind Data and Balloon Identification</tspan>
  </text>
  <rect id="TITLE_FRAME" x="134" y="59" width="1652" height="103" fill="none"/>
  <g transform="translate(50, 500) scale(0.95)">
    <g transform="translate(240.0, 0)">
      <rect id="ITEM_1_BG" x="-140" y="-180" width="280" height="360" rx="24" fill="var(--panel)" stroke="var(--accent-1)" stroke-width="2"/>
      <text id="ITEM_1_HEAD" x="0.0" y="10.0" text-anchor="middle" font-weight="bold" font-size="32" fill="var(--primary-text)" data-bg-id="ITEM_1_BG" fill-opacity="1.0" style="font-size: 30px; font-family: Inter, Segoe UI, Kalam, Roboto, Helvetica, Arial, sans-serif; font-weight: 700; letter-spacing:-0.4px;" data-final-font-size="30">
        <tspan x="0.0" dy="28.25px">Correct Drift</tspan>
      </text>
      <rect id="ITEM_1_HEAD_FRAME" x="-120" y="10" width="240" height="40" fill="none"/>
      <text id="ITEM_1_BODY" x="0.0" y="60.0" text-anchor="middle" font-size="22" fill="var(--primary-text)" data-bg-id="ITEM_1_BG" style="font-size: 26px; font-family: Inter, Segoe UI, Kalam, Roboto, Helvetica, Arial, sans-serif; font-weight: 400;" data-final-font-size="26">
        <tspan x="0.0" dy="26.86px">Object moves with the</tspan>
        <tspan x="0.0" dy="29.90px">relevant wind layer</tspan>
        <tspan x="0.0" dy="29.90px">direction</tspan>
      </text>
      <rect id="ITEM_1_BODY_FRAME" x="-143" y="60" width="286" height="120" fill="none" data-side-overflow-fix="47.0|47.0"/>
      <circle id="ITEM_1_PAD" cx="0" cy="-70" r="58" fill="var(--icon-pad-bg)" stroke="var(--primary-text)" opacity="0.9" fill-opacity="0.9" stroke-width="2"/>
      <circle id="ITEM_1_PAD_INNER" cx="0" cy="-70" r="45.24" fill="var(--accent-1)" fill-opacity="0.22"/>
      <circle cx="0" cy="-70" r="46.4" fill="none" stroke="var(--accent-1)" stroke-width="3" stroke-dasharray="6 4"/>
      <g id="ITEM_1_ICON" transform="translate(-45, -115)" data-icon-size="90" stroke-dasharray="6 4">
        <g transform="translate(-4.073898305084748,-4.073898305084754) scale(4.089491525423729)" vector-effect="non-scaling-stroke" stroke-width="2.79" stroke-linecap="round" stroke-linejoin="round" stroke-opacity="1.0">
          <path d="M12.8 19.6A2 2 0 1 0 14 16H2" vector-effect="non-scaling-stroke" fill="none" stroke="#f1f5f9"/>
          <path d="M17.5 8a2.5 2.5 0 1 1 2 4H2" vector-effect="non-scaling-stroke" fill="none" stroke="#f1f5f9"/>
          <path d="M9.8 4.4A2 2 0 1 1 11 8H2" vector-effect="non-scaling-stroke" fill="none" stroke="#f1f5f9"/>
        </g>
      </g>
    </g>
    <text x="420.0" y="50" text-anchor="middle" font-size="72" font-weight="900" fill="var(--muted-text)" opacity="0.5" dominant-baseline="middle">+</text>
    <g transform="translate(600.0, 0)">
      <rect id="ITEM_2_BG" x="-140" y="-180" width="280" height="360" rx="24" fill="var(--panel)" stroke="var(--accent-2)" stroke-width="2"/>
      <text id="ITEM_2_HEAD" x="0.0" y="10.0" text-anchor="middle" font-weight="bold" font-size="32" fill="var(--primary-text)" data-bg-id="ITEM_2_BG" fill-opacity="1.0" style="font-size: 30px; font-family: Inter, Segoe UI, Kalam, Roboto, Helvetica, Arial, sans-serif; font-weight: 700; letter-spacing:-0.4px;" data-final-font-size="30">
        <tspan x="0.0" dy="28.25px">Plausible Speed</tspan>
      </text>
      <rect id="ITEM_2_HEAD_FRAME" x="-120" y="10" width="240" height="40" fill="none"/>
      <text id="ITEM_2_BODY" x="0.0" y="60.0" text-anchor="middle" font-size="22" fill="var(--primary-text)" data-bg-id="ITEM_2_BG" style="font-size: 26px; font-family: Inter, Segoe UI, Kalam, Roboto, Helvetica, Arial, sans-serif; font-weight: 400;" data-final-font-size="26">
        <tspan x="0.0" dy="26.86px">Angular speed matches</tspan>
        <tspan x="0.0" dy="29.90px">slow drift rather</tspan>
        <tspan x="0.0" dy="29.90px">than powered flight</tspan>
      </text>
      <rect id="ITEM_2_BODY_FRAME" x="-143" y="60" width="286" height="120" fill="none" data-side-overflow-fix="47.0|47.0"/>
      <circle id="ITEM_2_PAD" cx="0" cy="-70" r="58" fill="var(--icon-pad-bg)" stroke="var(--primary-text)" opacity="0.9" fill-opacity="0.9" stroke-width="2"/>
      <circle id="ITEM_2_PAD_INNER" cx="0" cy="-70" r="45.24" fill="var(--accent-2)" fill-opacity="0.22"/>
      <circle cx="0" cy="-70" r="46.4" fill="none" stroke="var(--accent-2)" stroke-width="3" stroke-dasharray="6 4"/>
      <g id="ITEM_2_ICON" transform="translate(-45, -115)" data-icon-size="90" stroke-dasharray="6 4">
        <g transform="translate(-6.7028571428571455,-3.471428571428575) scale(0.40392857142857147)" vector-effect="non-scaling-stroke" stroke-width="2.79" stroke-linecap="round" stroke-linejoin="round" stroke-opacity="1.0">
          <line x1="120" y1="160" x2="216" y2="64" fill="none" stroke="#f1f5f9" vector-effect="non-scaling-stroke"/>
          <path d="M56.44,160a73,73,0,0,1-.44-8,72.06,72.06,0,0,1,95-68.25" fill="none" stroke="#f1f5f9" vector-effect="non-scaling-stroke"/>
          <path d="M220.62,104.64a104.38,104.38,0,0,1,5.48,82,8,8,0,0,1-7.57,5.37H37.46a8.05,8.05,0,0,1-7.57-5.41A104.06,104.06,0,0,1,24,151.19C24.44,94,71.73,47.49,129,48a103.68,103.68,0,0,1,46.4,11.38" fill="none" stroke="#f1f5f9" vector-effect="non-scaling-stroke"/>
        </g>
      </g>
    </g>
    <text x="780.0" y="50" text-anchor="middle" font-size="72" font-weight="900" fill="var(--muted-text)" opacity="0.5" dominant-baseline="middle">+</text>
    <g transform="translate(960.0, 0)">
      <rect id="ITEM_3_BG" x="-140" y="-180" width="280" height="360" rx="24" fill="var(--panel)" stroke="var(--accent-3)" stroke-width="2"/>
      <text id="ITEM_3_HEAD" x="0.0" y="10.0" text-anchor="middle" font-weight="bold" font-size="32" fill="var(--accent-3)" data-bg-id="ITEM_3_BG" fill-opacity="1.0" style="font-size: 30px; font-family: Inter, Segoe UI, Kalam, Roboto, Helvetica, Arial, sans-serif; font-weight: 700; letter-spacing:-0.4px;" data-final-font-size="30">
        <tspan x="0.0" dy="28.25px">Altitude Match</tspan>
      </text>
      <rect id="ITEM_3_HEAD_FRAME" x="-120" y="10" width="240" height="40" fill="none"/>
      <text id="ITEM_3_BODY" x="0.0" y="60.0" text-anchor="middle" font-size="22" fill="var(--primary-text)" data-bg-id="ITEM_3_BG" style="font-size: 26px; font-family: Inter, Segoe UI, Kalam, Roboto, Helvetica, Arial, sans-serif; font-weight: 400;" data-final-font-size="26">
        <tspan x="0.0" dy="20.88px">Explanation fits</tspan>
        <tspan x="0.0" dy="29.90px">specific height layers</tspan>
        <tspan x="0.0" dy="29.90px">for lanterns or</tspan>
        <tspan x="0.0" dy="29.90px">balloons</tspan>
      </text>
      <rect id="ITEM_3_BODY_FRAME" x="-143" y="60" width="286" height="120" fill="none" data-side-overflow-fix="47.0|47.0"/>
      <circle id="ITEM_3_PAD" cx="0" cy="-70" r="58" fill="var(--icon-pad-bg)" stroke="var(--primary-text)" opacity="0.9" fill-opacity="0.9" stroke-width="2"/>
      <circle id="ITEM_3_PAD_INNER" cx="0" cy="-70" r="45.24" fill="var(--accent-3)" fill-opacity="0.22"/>
      <circle cx="0" cy="-70" r="46.4" fill="none" stroke="var(--accent-3)" stroke-width="3" stroke-dasharray="6 4"/>
      <g id="ITEM_3_ICON" transform="translate(-45, -115)" data-icon-size="90" stroke-dasharray="6 4">
        <g transform="translate(-8.61777777777778,-8.617777777777775) scale(4.468148148148148)" vector-effect="non-scaling-stroke" fill="#f1f5f9" fill-opacity="1.0" stroke="none">
          <path fill="#f1f5f9" d="M15 3h2l5 2l-5 2v3.17L22 21H2l6-8l3.5 4.7l3.5-7.53z" vector-effect="non-scaling-stroke" stroke="none"/>
        </g>
      </g>
    </g>
    <text x="1140.0" y="50" text-anchor="middle" font-size="72" font-weight="900" fill="var(--muted-text)" opacity="0.5" dominant-baseline="middle">+</text>
    <g transform="translate(1320.0, 0)">
      <rect id="ITEM_4_BG" x="-140" y="-180" width="280" height="360" rx="24" fill="var(--panel)" stroke="var(--accent-4)" stroke-width="2"/>
      <text id="ITEM_4_HEAD" x="0.0" y="10.0" text-anchor="middle" font-weight="bold" font-size="32" fill="var(--accent-4)" data-bg-id="ITEM_4_BG" fill-opacity="1.0" style="font-size: 30px; font-family: Inter, Segoe UI, Kalam, Roboto, Helvetica, Arial, sans-serif; font-weight: 700; letter-spacing:-0.4px;" data-final-font-size="30">
        <tspan x="0.0" dy="28.25px">Visual Signature</tspan>
      </text>
      <rect id="ITEM_4_HEAD_FRAME" x="-120" y="10" width="240" height="40" fill="none"/>
      <text id="ITEM_4_BODY" x="0.0" y="60.0" text-anchor="middle" font-size="22" fill="var(--primary-text)" data-bg-id="ITEM_4_BG" style="font-size: 24px; font-family: Inter, Segoe UI, Kalam, Roboto, Helvetica, Arial, sans-serif; font-weight: 400;" data-final-font-size="24">
        <tspan x="0.0" dy="21.12px">Orange flickering</tspan>
        <tspan x="0.0" dy="27.60px">clusters suggest</tspan>
        <tspan x="0.0" dy="27.60px">lanterns or reflective</tspan>
        <tspan x="0.0" dy="27.60px">spheres suggest balloons</tspan>
      </text>
      <rect id="ITEM_4_BODY_FRAME" x="-143" y="60" width="286" height="120" fill="none" data-side-overflow-fix="47.0|47.0"/>
      <circle id="ITEM_4_PAD" cx="0" cy="-70" r="58" fill="var(--icon-pad-bg)" stroke="var(--primary-text)" opacity="0.9" fill-opacity="0.9" stroke-width="2"/>
      <circle id="ITEM_4_PAD_INNER" cx="0" cy="-70" r="45.24" fill="var(--accent-4)" fill-opacity="0.22"/>
      <circle cx="0" cy="-70" r="46.4" fill="none" stroke="var(--accent-4)" stroke-width="3" stroke-dasharray="6 4"/>
      <g id="ITEM_4_ICON" transform="translate(-45, -115)" data-icon-size="90" stroke-dasharray="6 4">
        <g transform="translate(-5.4446017699115075,-6.645663716814162) scale(3.20283185840708)">
          <path d="M17.6512 22.27H13.7612C12.9712 22.27 12.3212 22.91 12.3312 23.7V27.59C12.3312 28.38 12.9712 29.02 13.7612 29.02H14.0093C14.3418 29.6109 14.9749 30.01 15.7012 30.01C16.4275 30.01 17.0605 29.6109 17.393 29.02H17.6512C18.4412 29.02 19.0812 28.38 19.0812 27.59V23.7C19.0812 22.91 18.4412 22.27 17.6512 22.27Z" fill="#9B9B9B"/>
          <path d="M18.1611 23.13C18.4011 23.13 18.5911 22.95 18.6111 22.72C18.6811 21.86 19.0511 19.77 21.0711 17.53C22.9611 16.04 24.2111 13.78 24.3611 11.22C24.3811 10.98 24.3911 10.82 24.3911 10.72V10.71V10.7C24.3911 10.65 24.3911 10.62 24.3911 10.62C24.3311 5.84 20.4611 2 15.6911 2C10.9211 2 7.05111 5.84 7.00111 10.6C7.00111 10.6 6.99111 10.84 7.03111 11.24C7.19111 13.78 8.43111 16.03 10.3211 17.52C12.3411 19.77 12.7411 21.86 12.8111 22.72C12.8311 22.95 13.0211 23.13 13.2611 23.13H18.1611Z" fill="#FCD53F"/>
          <path d="M15.7011 10.7C17.3211 10.7 18.6411 12.01 18.6611 13.63V13.71C18.6611 13.74 18.6611 13.78 18.6511 13.84C18.6011 14.68 18.1911 15.47 17.5311 15.99L17.4611 16.04L17.4011 16.1C16.3011 17.32 16.0711 20.42 16.0311 22.12H15.3811C15.3311 20.42 15.0911 17.32 13.9911 16.1L13.9311 16.04L13.8611 15.99C13.2011 15.47 12.7911 14.69 12.7411 13.82C12.7411 13.78 12.7311 13.75 12.7311 13.73V13.64C12.7611 12.02 14.0911 10.7 15.7011 10.7ZM15.7011 9.69995C13.5311 9.69995 11.7611 11.45 11.7411 13.62C11.7411 13.62 11.7411 13.73 11.7511 13.91C11.8211 15.07 12.3911 16.09 13.2511 16.77C14.4511 18.11 14.3911 23.13 14.3911 23.13H17.0311C17.0311 23.13 16.9511 18.11 18.1611 16.78C19.0211 16.1 19.5911 15.07 19.6611 13.9C19.6711 13.79 19.6711 13.72 19.6711 13.67C19.6711 13.65 19.6711 13.63 19.6711 13.63C19.6411 11.45 17.8811 9.69995 15.7011 9.69995Z" fill="#FFB02E"/>
          <path d="M19.1674 25.0525C19.4394 25.0049 19.6213 24.7458 19.5737 24.4738C19.526 24.2018 19.2669 24.0199 18.9949 24.0675L12.2549 25.2475C11.9829 25.2951 11.801 25.5542 11.8486 25.8262C11.8963 26.0983 12.1554 26.2801 12.4274 26.2325L19.1674 25.0525ZM19.1178 27.2025C19.3897 27.1546 19.5714 26.8954 19.5236 26.6234C19.4757 26.3514 19.2165 26.1698 18.9445 26.2176L12.2945 27.3876C12.0225 27.4355 11.8408 27.6947 11.8887 27.9667C11.9365 28.2386 12.1958 28.4203 12.4678 28.3725L19.1178 27.2025Z" fill="#D3D3D3"/>
          <path d="M13.7912 5.43997C12.6812 7.35997 13.2412 9.75997 15.0412 10.79C16.8412 11.82 19.1912 11.11 20.3012 9.18997C21.4112 7.26997 20.8512 4.86997 19.0512 3.83997C17.2512 2.80997 14.9012 3.51997 13.7912 5.43997Z" fill="#FFF478"/>
        </g>
      </g>
    </g>
    <text x="1500.0" y="50" text-anchor="middle" font-size="72" font-weight="900" fill="var(--muted-text)" opacity="0.5" dominant-baseline="middle">=</text>
    <g transform="translate(1680.0, 0)">
      <rect id="ITEM_5_BG" x="-140" y="-180" width="280" height="360" rx="24" fill="var(--panel)" stroke="var(--accent-5)" stroke-width="2"/>
      <text id="ITEM_5_HEAD" x="0.0" y="10.0" text-anchor="middle" font-weight="bold" font-size="32" fill="var(--accent-4)" data-bg-id="ITEM_5_BG" fill-opacity="1.0" style="font-size: 30px; font-family: Inter, Segoe UI, Kalam, Roboto, Helvetica, Arial, sans-serif; font-weight: 700; letter-spacing:-0.4px;" data-final-font-size="30">
        <tspan x="0.0" dy="28.25px">Event Context</tspan>
      </text>
      <rect id="ITEM_5_HEAD_FRAME" x="-120" y="10" width="240" height="40" fill="none"/>
      <text id="ITEM_5_BODY" x="0.0" y="60.0" text-anchor="middle" font-size="22" fill="var(--primary-text)" data-bg-id="ITEM_5_BG" style="font-size: 26px; font-family: Inter, Segoe UI, Kalam, Roboto, Helvetica, Arial, sans-serif; font-weight: 400;" data-final-font-size="26">
        <tspan x="0.0" dy="20.88px">Nearby celebrations or</tspan>
        <tspan x="0.0" dy="29.90px">research activity</tspan>
        <tspan x="0.0" dy="29.90px">support the</tspan>
        <tspan x="0.0" dy="29.90px">drifting source</tspan>
      </text>
      <rect id="ITEM_5_BODY_FRAME" x="-143" y="60" width="286" height="120" fill="none" data-side-overflow-fix="47.0|47.0"/>
      <circle id="ITEM_5_PAD" cx="0" cy="-70" r="58" fill="var(--icon-pad-bg)" stroke="var(--primary-text)" opacity="0.9" fill-opacity="0.9" stroke-width="2"/>
      <circle id="ITEM_5_PAD_INNER" cx="0" cy="-70" r="45.24" fill="var(--accent-4)" fill-opacity="0.22"/>
      <circle cx="0" cy="-70" r="46.4" fill="none" stroke="var(--accent-5)" stroke-width="3" stroke-dasharray="6 4"/>
      <g id="ITEM_5_ICON" transform="translate(-45, -115)" data-icon-size="90" stroke-dasharray="6 4">
        <g transform="translate(-6.7028571428571455,-5.895000000000008) scale(3.2314285714285718)">
          <path d="M25.0642 23.4047L23.9155 20.598L22.2011 21.2996L23.3511 24.1097L23.3525 24.113C23.5183 24.5137 23.3281 24.9545 22.9426 25.1096L18.0368 27.1219L18.0342 27.123C17.6335 27.2888 17.1927 27.0987 17.0376 26.7132L15.8855 23.898L14.1711 24.5997L15.3202 27.4074C15.8659 28.7594 17.403 29.3881 18.741 28.8353L18.7425 28.8347L23.6372 26.8268C24.9889 26.281 25.6173 24.7444 25.065 23.4066L25.0642 23.4047ZM8 23.5L9.70824 26.7789C10.3282 27.4289 10.2982 28.4589 9.63824 29.0689C8.98824 29.6789 7.95824 29.6489 7.34824 28.9989L2.43824 23.7889C1.82824 23.1389 1.85824 22.1089 2.50824 21.4989C3.15824 20.8889 4.18824 20.9189 4.79824 21.5689L8 23.5Z" fill="#FFB02E"/>
          <path d="M29.2283 15.0788L17.6783 2.82884C16.4083 1.47884 14.1783 1.82887 13.3883 3.50887L4.79834 21.5689L9.76834 26.8389L28.3083 19.3288C30.0183 18.6388 30.4983 16.4288 29.2283 15.0788Z" fill="#F9C23C"/>
        </g>
      </g>
    </g>
  </g>
</svg>
