<?xml version='1.0' encoding='utf-8'?>
<svg xmlns="http://www.w3.org/2000/svg" width="1920" height="1080" viewBox="0 0 1920 1080" data-theme="light">
  <style>
        @font-face {
            font-family: 'Inter';
            src: url('assets/fonts/Inter-Regular.ttf') format('truetype');
            font-weight: 400;
            font-style: normal;
            font-display: swap;
        }
        @font-face {
            font-family: 'Inter';
            src: url('assets/fonts/Inter-Bold.ttf') format('truetype');
            font-weight: 600;
            font-style: normal;
            font-display: swap;
        }
        @font-face {
            font-family: 'Inter';
            src: url('assets/fonts/Inter-Bold.ttf') format('truetype');
            font-weight: 800;
            font-style: normal;
            font-display: swap;
        }
        
:root {
    --background: #f8fafc;
    --panel: #ffffff;
    --primary-text: #0f172a;
    --muted-text: #64748b;
    --inverse-text: #ffffff;
    --border: #e2e8f0;
    --shadow-color: #000000;
    --icon-pad-bg: #1e293b;
    --art-glow: #0891b2;
    --art-glow-opacity: 0.10;
    --art-sheen: #ffffff;
    --art-sheen-opacity: 0.34;
    --art-shadow: #0f172a;
    --art-shadow-opacity: 0.14;
    --art-muted-line: #94a3b8;
    --art-panel-tint: #f1f5f9;
    --font-family: 'Inter', 'Segoe UI', 'Kalam', Roboto, Helvetica, Arial, sans-serif;
    --radius-xl: 16px;
    --font-family-headline: 'Inter', 'Segoe UI', 'Kalam', Roboto, Helvetica, Arial, sans-serif;
    --font-family-body: 'Inter', 'Segoe UI', 'Kalam', Roboto, Helvetica, Arial, sans-serif;
    --font-heading: 'Inter', 'Segoe UI', 'Kalam', Roboto, Helvetica, Arial, sans-serif;
    --font-body: 'Inter', 'Segoe UI', 'Kalam', Roboto, Helvetica, Arial, sans-serif;
    --font-size-h1: 56px;
    --font-size-h2: 40px;
    --font-size-h3: 28px;
    --font-size-body: 24px;
    --font-size-caption: 18px;
    --secondary-text: var(--muted-text);
    --panel-border: var(--border);
    --font-weight-normal: 400;
    --font-weight-medium: 500;
    --font-weight-semibold: 600;
    --font-weight-bold: 700;
    --spacing-gutter-pct: 0.07;
    --spacing-top-pct: 0.15;
    --spacing-bottom-pct: 0.07;
    --spacing-title-y-pct: 0.055;
    --accent-1: #2563eb;
    --accent-2: #16a34a;
    --accent-3: #ea580c;
    --accent-4: #7c3aed;
    --accent-5: #0284c7;
    --accent-6: #475569;
}
:root[data-theme="dark"] {
    --background: #0f172a;
    --panel: #1e293b;
    --primary-text: #f1f5f9;
    --muted-text: #94a3b8;
    --inverse-text: #0f172a;
    --border: #334155;
    --shadow-color: #000000;
    --icon-pad-bg: #1e293b;
    --art-glow: #7dd3fc;
    --art-glow-opacity: 0.18;
    --art-sheen: #ffffff;
    --art-sheen-opacity: 0.18;
    --art-shadow: #000000;
    --art-shadow-opacity: 0.28;
    --art-muted-line: #64748b;
    --art-panel-tint: #1e293b;
    --accent-1: #60a5fa;
    --accent-2: #4ade80;
    --accent-3: #f97316;
    --accent-4: #a78bfa;
    --accent-5: #38bdf8;
    --accent-6: #94a3b8;
}
:root[data-theme="light"] {
    --background: #f8fafc;
    --panel: #ffffff;
    --primary-text: #0f172a;
    --muted-text: #64748b;
    --inverse-text: #ffffff;
    --border: #e2e8f0;
    --shadow-color: #000000;
    --icon-pad-bg: #1e293b;
    --art-glow: #0891b2;
    --art-glow-opacity: 0.10;
    --art-sheen: #ffffff;
    --art-sheen-opacity: 0.34;
    --art-shadow: #0f172a;
    --art-shadow-opacity: 0.14;
    --art-muted-line: #94a3b8;
    --art-panel-tint: #f1f5f9;
    --accent-1: #2563eb;
    --accent-2: #16a34a;
    --accent-3: #ea580c;
    --accent-4: #7c3aed;
    --accent-5: #0284c7;
    --accent-6: #475569;
}</style>
  <rect x="0" y="0" width="1.92E+3" height="1.08E+3" fill="#252a34" stroke="none" id="programmatic_background"/>
  <line id="HEADER_DECOR" x1="960.0" x2="1080.0" y1="107.0" y2="107.0" stroke="var(--accent-1)" stroke-width="6" stroke-linecap="round"/>
  <defs>
    <pattern id="svgf24ef1c9-napkin-hatch" patternUnits="userSpaceOnUse" width="12" height="12">
      <path d="M -3 12 L 12 -3 M 0 15 L 15 0" fill="none" stroke="var(--primary-text)" stroke-width="1" stroke-opacity="0.05"/>
    </pattern>
    <filter id="svgf24ef1c9-shadow" x="-30%" y="-30%" width="160%" height="160%">
      <feDropShadow dx="0" dy="2" stdDeviation="3" flood-color="#000000" flood-opacity="0.08"/>
      <feDropShadow dx="0" dy="6" stdDeviation="10" flood-color="#000000" flood-opacity="0.12"/>
    </filter>
    <filter id="svgf24ef1c9-soft-glow" x="-40%" y="-40%" width="180%" height="180%">
      <feDropShadow dx="0" dy="0" stdDeviation="6" flood-color="#000000" flood-opacity="0.12"/>
    </filter>
    <linearGradient id="svgf24ef1c9-water-gradient" x1="0%" y1="0%" x2="100%" y2="100%">
      <stop offset="0%" stop-color="var(--accent-1)" stop-opacity="0.55"/>
      <stop offset="100%" stop-color="var(--accent-6)" stop-opacity="0.85"/>
    </linearGradient>
    <radialGradient id="svgf24ef1c9-universal-edge-vignette" cx="50%" cy="50%" r="72%">
      <stop offset="0%" stop-color="var(--background)" stop-opacity="0"/>
      <stop offset="72%" stop-color="var(--background)" stop-opacity="0.12"/>
      <stop offset="100%" stop-color="var(--primary-text)" stop-opacity="0.08"/>
    </radialGradient>
    <linearGradient id="svgf24ef1c9-universal-surface-sheen" x1="0%" y1="0%" x2="100%" y2="100%">
      <stop offset="0%" stop-color="var(--art-sheen)" stop-opacity="var(--art-sheen-opacity)"/>
      <stop offset="46%" stop-color="var(--art-sheen)" stop-opacity="0.035"/>
      <stop offset="100%" stop-color="var(--art-panel-tint)" stop-opacity="0.14"/>
    </linearGradient>
    <radialGradient id="svgf24ef1c9-universal-icon-aura" cx="50%" cy="42%" r="64%">
      <stop offset="0%" stop-color="var(--art-glow)" stop-opacity="var(--art-glow-opacity)"/>
      <stop offset="100%" stop-color="var(--background)" stop-opacity="0"/>
    </radialGradient>
    <linearGradient id="svgf24ef1c9-waterfall-mist" x1="0%" y1="0%" x2="100%" y2="100%">
      <stop offset="0%" stop-color="var(--inverse-text)" stop-opacity="0.22"/>
      <stop offset="100%" stop-color="var(--background)" stop-opacity="0"/>
    </linearGradient>
    <filter id="svgf24ef1c9-text-glow" x="-20%" y="-20%" width="140%" height="140%">
      <feDropShadow dx="0" dy="0" stdDeviation="2" flood-color="#000000" flood-opacity="0.4"/>
    </filter>
    <marker id="svgf24ef1c9-arrowhead" markerWidth="10" markerHeight="7" refX="9" refY="3.5" orient="auto" markerUnits="strokeWidth">
      <polygon points="0 0, 10 3.5, 0 7" fill="var(--muted-text)" opacity="0.6"/>
    </marker>
  </defs>
  <rect width="100%" height="100%" fill="var(--background)" id="CANVAS_BG"/>
  <rect width="100%" height="100%" fill="url(#svgf24ef1c9-napkin-hatch)"/>
  <rect id="UNIVERSAL_EDGE_VIGNETTE" width="100%" height="100%" fill="url(#svgf24ef1c9-universal-edge-vignette)" opacity="0.62"/>
  <text id="TITLE" x="960.0" y="59" text-anchor="middle" font-weight="800" font-size="58" fill="#0f172a" style="font-size: 60px; font-family: Inter, Segoe UI, Kalam, Roboto, Helvetica, Arial, sans-serif; font-weight: 700; letter-spacing:-1.2px;" data-final-font-size="60">
    <tspan x="960.0" dy="68.00px">The GOFAST Misinterpretation Process</tspan>
  </text>
  <rect id="TITLE_FRAME" x="134" y="44" width="1652" height="110" fill="none"/>
  <g>
    <ellipse id="WATERFALL_ART_POOL_GLOW" cx="900" cy="844" rx="620" ry="150" fill="url(#svgf24ef1c9-waterfall-mist)" opacity="0.72"/>
    <path id="WATERFALL_ART_FOAM" d="M 212 270 L 480 402 L 742 534 L 1002 666 L 1262 798" fill="none" stroke="var(--inverse-text)" stroke-width="4" stroke-opacity="0.18" stroke-linecap="round"/>
    <path d="M 224.0 258.0 L 484.0 390.0 L 744.0 522.0 L 1004.0 654.0 L 1264.0 786.0" fill="none" stroke="url(#svgf24ef1c9-water-gradient)" stroke-width="26" stroke-linecap="round" stroke-linejoin="round" opacity="0.62" filter="url(#svgf24ef1c9-soft-glow)"/>
    <path d="M 224.0 258.0 L 484.0 390.0 L 744.0 522.0 L 1004.0 654.0 L 1264.0 786.0" fill="none" stroke="url(#svgf24ef1c9-water-gradient)" stroke-width="12" stroke-linecap="round" stroke-linejoin="round" opacity="0.95"/>
    <path d="M 150.0 230.0 L 440.0 230.0 L 482.0 272.0 L 192.0 272.0 Z" fill="var(--panel)" stroke="var(--accent-1)" stroke-width="2.5"/>
    <rect id="ITEM_1_TEXT_BG" x="192.0" y="272.0" width="310.0" height="150.0" rx="22" fill="var(--panel)" fill-opacity="0.96" stroke="var(--accent-1)" stroke-width="2.5" filter="url(#svgf24ef1c9-shadow)"/>
    <rect x="192.0" y="272.0" width="310.0" height="150.0" rx="16" fill="url(#svgf24ef1c9-universal-surface-sheen)" opacity="0.78"/>
    <circle cx="228.0" cy="258.0" r="48" fill="url(#svgf24ef1c9-universal-icon-aura)" opacity="0.82"/>
    <circle cx="228.0" cy="258.0" r="34" fill="var(--icon-pad-bg)" stroke="none" opacity="0.94"/>
    <circle cx="228.0" cy="258.0" r="27.2" fill="none" stroke="var(--accent-1)" stroke-width="3" stroke-dasharray="6 4"/>
    <circle id="ITEM_1_PAD" cx="228.00" cy="258.00" r="35.20" fill="var(--icon-pad-bg)" stroke="var(--primary-text)" stroke-width="2" opacity="0.9"/>
    <circle id="ITEM_1_PAD_INNER" cx="228.00" cy="258.00" r="27.46" fill="var(--accent-1)" fill-opacity="0.22"/>
    <g id="ITEM_1_ICON" transform="translate(206.0, 236.0)" data-icon-size="44" stroke-dasharray="6 4">
      <g transform="translate(-8.296275862068969,-8.296275862068967) scale(2.524689655172414)" vector-effect="non-scaling-stroke" stroke-width="2.24" stroke-linecap="round" stroke-linejoin="round" stroke-opacity="1.0">
        <path d="M2 9C2 6.17157 2 4.75736 2.87868 3.87868C3.75736 3 5.17157 3 8 3H16C18.8284 3 20.2426 3 21.1213 3.87868C22 4.75736 22 6.17157 22 9V10C22 12.8284 22 14.2426 21.1213 15.1213C20.2426 16 18.8284 16 16 16H8C5.17157 16 3.75736 16 2.87868 15.1213C2 14.2426 2 12.8284 2 10V9Z" stroke="#f1f5f9" vector-effect="non-scaling-stroke" fill="none"/>
        <path d="M12 19V16.5M12 19L18 21M12 19L6 21" stroke="#f1f5f9" vector-effect="non-scaling-stroke" fill="none"/>
      </g>
    </g>
    <text id="ITEM_1_HEAD" x="216.0" y="284.0" font-weight="bold" font-size="22" fill="var(--accent-1)" data-bg-id="ITEM_1_TEXT_BG" fill-opacity="1.0" style="font-size: 30px; font-family: Inter, Segoe UI, Kalam, Roboto, Helvetica, Arial, sans-serif; font-weight: 700; letter-spacing:-0.4px;" data-final-font-size="30">
      <tspan x="216.0" dy="26.25px">Visual Input</tspan>
    </text>
    <rect id="ITEM_1_HEAD_FRAME" x="216.0" y="284.0" width="258.0" height="36" fill="none"/>
    <text id="ITEM_1_BODY" x="216.0" y="330.0" font-size="17" fill="var(--primary-text)" data-bg-id="ITEM_1_TEXT_BG" style="font-size: 21px; font-family: Inter, Segoe UI, Kalam, Roboto, Helvetica, Arial, sans-serif; font-weight: 400;" data-final-font-size="21">
      <tspan x="216.0" dy="21.54px">Stabilized footage shows</tspan>
      <tspan x="216.0" dy="24.15px">a dark shape over water</tspan>
    </text>
    <rect id="ITEM_1_BODY_FRAME" x="216.0" y="330.0" width="248.0" height="72" fill="none"/>
    <path d="M 398.0 350.0 L 736.0 350.0 L 786.0 404.0 L 448.0 404.0 Z" fill="var(--panel)" stroke="var(--accent-2)" stroke-width="2.5"/>
    <rect id="ITEM_2_TEXT_BG" x="448.0" y="404.0" width="338.0" height="176.0" rx="22" fill="var(--panel)" fill-opacity="0.96" stroke="var(--accent-2)" stroke-width="2.5" filter="url(#svgf24ef1c9-shadow)"/>
    <rect x="448.0" y="404.0" width="338.0" height="176.0" rx="16" fill="url(#svgf24ef1c9-universal-surface-sheen)" opacity="0.78"/>
    <circle cx="488.0" cy="390.0" r="48" fill="url(#svgf24ef1c9-universal-icon-aura)" opacity="0.82"/>
    <circle cx="488.0" cy="390.0" r="34" fill="var(--icon-pad-bg)" stroke="none" opacity="0.94"/>
    <circle cx="488.0" cy="390.0" r="27.2" fill="none" stroke="var(--accent-2)" stroke-width="3" stroke-dasharray="6 4"/>
    <circle id="ITEM_2_PAD" cx="488.00" cy="390.00" r="35.20" fill="var(--icon-pad-bg)" stroke="var(--primary-text)" stroke-width="2" opacity="0.9"/>
    <circle id="ITEM_2_PAD_INNER" cx="488.00" cy="390.00" r="27.46" fill="var(--accent-2)" fill-opacity="0.22"/>
    <g id="ITEM_2_ICON" transform="translate(466.0, 368.0)" data-icon-size="44" stroke-dasharray="6 4">
      <g transform="translate(-10.54044444444445,-10.540444444444448) scale(2.711703703703704)" vector-effect="non-scaling-stroke" fill="#f1f5f9" fill-opacity="1.0" stroke="none">
        <path fill="#f1f5f9" d="M21 9h-6v13h-2v-6h-2v6H9V9H3V7h18m-9-5a2 2 0 0 1 2 2a2 2 0 0 1-2 2a2 2 0 0 1-2-2c0-1.11.89-2 2-2" vector-effect="non-scaling-stroke" stroke="none"/>
      </g>
    </g>
    <text id="ITEM_2_HEAD" x="472.0" y="414.0" font-weight="bold" font-size="21" fill="var(--primary-text)" data-bg-id="ITEM_2_TEXT_BG" fill-opacity="1.0" style="font-size: 30px; font-family: Inter, Segoe UI, Kalam, Roboto, Helvetica, Arial, sans-serif; font-weight: 700; letter-spacing:-0.4px;" data-final-font-size="30">
      <tspan x="472.0" dy="27.25px">Human Bias</tspan>
    </text>
    <rect id="ITEM_2_HEAD_FRAME" x="472.0" y="414.0" width="286.0" height="38" fill="none"/>
    <text id="ITEM_2_BODY" x="472.0" y="458.0" font-size="16" fill="var(--primary-text)" data-bg-id="ITEM_2_TEXT_BG" style="font-size: 26px; font-family: Inter, Segoe UI, Kalam, Roboto, Helvetica, Arial, sans-serif; font-weight: 400;" data-final-font-size="26">
      <tspan x="472.0" dy="22.86px">Brains assume low</tspan>
      <tspan x="472.0" dy="29.90px">altitude due to ocean</tspan>
      <tspan x="472.0" dy="29.90px">background</tspan>
    </text>
    <rect id="ITEM_2_BODY_FRAME" x="472.0" y="458.0" width="278.0" height="100" fill="none"/>
    <path d="M 670.0 494.0 L 960.0 494.0 L 1002.0 536.0 L 712.0 536.0 Z" fill="var(--panel)" stroke="var(--accent-3)" stroke-width="2.5"/>
    <rect id="ITEM_3_TEXT_BG" x="712.0" y="536.0" width="310.0" height="150.0" rx="22" fill="var(--panel)" fill-opacity="0.96" stroke="var(--accent-3)" stroke-width="2.5" filter="url(#svgf24ef1c9-shadow)"/>
    <rect x="712.0" y="536.0" width="310.0" height="150.0" rx="16" fill="url(#svgf24ef1c9-universal-surface-sheen)" opacity="0.78"/>
    <circle cx="748.0" cy="522.0" r="48" fill="url(#svgf24ef1c9-universal-icon-aura)" opacity="0.82"/>
    <circle cx="748.0" cy="522.0" r="34" fill="var(--icon-pad-bg)" stroke="none" opacity="0.94"/>
    <circle cx="748.0" cy="522.0" r="27.2" fill="none" stroke="var(--accent-3)" stroke-width="3" stroke-dasharray="6 4"/>
    <circle id="ITEM_3_PAD" cx="748.00" cy="522.00" r="35.20" fill="var(--icon-pad-bg)" stroke="var(--primary-text)" stroke-width="2" opacity="0.9"/>
    <circle id="ITEM_3_PAD_INNER" cx="748.00" cy="522.00" r="27.46" fill="var(--accent-3)" fill-opacity="0.22"/>
    <g id="ITEM_3_ICON" transform="translate(726.0, 500.0)" data-icon-size="44" stroke-dasharray="6 4">
      <g transform="translate(-7.782779661016955,-7.782779661016953) scale(2.481898305084746)" vector-effect="non-scaling-stroke" stroke-width="2.24" stroke-linecap="round" stroke-linejoin="round" stroke-opacity="1.0">
        <rect width="16" height="20" x="4" y="2" rx="2" vector-effect="non-scaling-stroke" fill="none" stroke="#f1f5f9"/>
        <line x1="8" x2="16" y1="6" y2="6" vector-effect="non-scaling-stroke" fill="none" stroke="#f1f5f9"/>
        <line x1="16" x2="16" y1="14" y2="18" vector-effect="non-scaling-stroke" fill="none" stroke="#f1f5f9"/>
        <path d="M16 10h.01" vector-effect="non-scaling-stroke" fill="none" stroke="#f1f5f9"/>
        <path d="M12 10h.01" vector-effect="non-scaling-stroke" fill="none" stroke="#f1f5f9"/>
        <path d="M8 10h.01" vector-effect="non-scaling-stroke" fill="none" stroke="#f1f5f9"/>
        <path d="M12 14h.01" vector-effect="non-scaling-stroke" fill="none" stroke="#f1f5f9"/>
        <path d="M8 14h.01" vector-effect="non-scaling-stroke" fill="none" stroke="#f1f5f9"/>
        <path d="M12 18h.01" vector-effect="non-scaling-stroke" fill="none" stroke="#f1f5f9"/>
        <path d="M8 18h.01" vector-effect="non-scaling-stroke" fill="none" stroke="#f1f5f9"/>
      </g>
    </g>
    <text id="ITEM_3_HEAD" x="736.0" y="548.0" font-weight="bold" font-size="22" fill="var(--primary-text)" data-bg-id="ITEM_3_TEXT_BG" fill-opacity="1.0" style="font-size: 29px; font-family: Inter, Segoe UI, Kalam, Roboto, Helvetica, Arial, sans-serif; font-weight: 700; letter-spacing:-0.4px;" data-final-font-size="29">
      <tspan x="736.0" dy="25.98px">Geometric Analysis</tspan>
    </text>
    <rect id="ITEM_3_HEAD_FRAME" x="736.0" y="548.0" width="258.0" height="36" fill="none"/>
    <text id="ITEM_3_BODY" x="736.0" y="594.0" font-size="17" fill="var(--primary-text)" data-bg-id="ITEM_3_TEXT_BG" style="font-size: 21px; font-family: Inter, Segoe UI, Kalam, Roboto, Helvetica, Arial, sans-serif; font-weight: 400;" data-final-font-size="21">
      <tspan x="736.0" dy="21.54px">Trigonometry reveals the</tspan>
      <tspan x="736.0" dy="24.15px">object is much higher up</tspan>
    </text>
    <rect id="ITEM_3_BODY_FRAME" x="736.0" y="594.0" width="248.0" height="72" fill="none"/>
    <path d="M 930.0 626.0 L 1220.0 626.0 L 1262.0 668.0 L 972.0 668.0 Z" fill="var(--panel)" stroke="var(--accent-4)" stroke-width="2.5"/>
    <rect id="ITEM_4_TEXT_BG" x="972.0" y="668.0" width="310.0" height="150.0" rx="22" fill="var(--panel)" fill-opacity="0.96" stroke="var(--accent-4)" stroke-width="2.5" filter="url(#svgf24ef1c9-shadow)"/>
    <rect x="972.0" y="668.0" width="310.0" height="150.0" rx="16" fill="url(#svgf24ef1c9-universal-surface-sheen)" opacity="0.78"/>
    <circle cx="1008.0" cy="654.0" r="48" fill="url(#svgf24ef1c9-universal-icon-aura)" opacity="0.82"/>
    <circle cx="1008.0" cy="654.0" r="34" fill="var(--icon-pad-bg)" stroke="none" opacity="0.94"/>
    <circle cx="1008.0" cy="654.0" r="27.2" fill="none" stroke="var(--accent-4)" stroke-width="3" stroke-dasharray="6 4"/>
    <circle id="ITEM_4_PAD" cx="1008.00" cy="654.00" r="35.20" fill="var(--icon-pad-bg)" stroke="var(--primary-text)" stroke-width="2" opacity="0.9"/>
    <circle id="ITEM_4_PAD_INNER" cx="1008.00" cy="654.00" r="27.46" fill="var(--accent-4)" fill-opacity="0.22"/>
    <g id="ITEM_4_ICON" transform="translate(986.0, 632.0)" data-icon-size="44" stroke-dasharray="6 4">
      <g transform="translate(-7.782779661016953,-7.782779661016955) scale(2.481898305084746)" vector-effect="non-scaling-stroke" stroke-width="2.24" stroke-linecap="round" stroke-linejoin="round" stroke-opacity="1.0">
        <path d="M12.8 19.6A2 2 0 1 0 14 16H2" vector-effect="non-scaling-stroke" fill="none" stroke="#f1f5f9"/>
        <path d="M17.5 8a2.5 2.5 0 1 1 2 4H2" vector-effect="non-scaling-stroke" fill="none" stroke="#f1f5f9"/>
        <path d="M9.8 4.4A2 2 0 1 1 11 8H2" vector-effect="non-scaling-stroke" fill="none" stroke="#f1f5f9"/>
      </g>
    </g>
    <text id="ITEM_4_HEAD" x="996.0" y="680.0" font-weight="bold" font-size="22" fill="var(--accent-4)" data-bg-id="ITEM_4_TEXT_BG" fill-opacity="1.0" style="font-size: 27px; font-family: Inter, Segoe UI, Kalam, Roboto, Helvetica, Arial, sans-serif; font-weight: 700; letter-spacing:-0.4px;" data-final-font-size="27">
      <tspan x="996.0" dy="24.08px">Velocity Correction</tspan>
    </text>
    <rect id="ITEM_4_HEAD_FRAME" x="996.0" y="680.0" width="258.0" height="36" fill="none"/>
    <text id="ITEM_4_BODY" x="996.0" y="726.0" font-size="17" fill="var(--primary-text)" data-bg-id="ITEM_4_TEXT_BG" style="font-size: 21px; font-family: Inter, Segoe UI, Kalam, Roboto, Helvetica, Arial, sans-serif; font-weight: 400;" data-final-font-size="21">
      <tspan x="996.0" dy="21.54px">High altitude results in</tspan>
      <tspan x="996.0" dy="24.15px">much slower actual speed</tspan>
    </text>
    <rect id="ITEM_4_BODY_FRAME" x="996.0" y="726.0" width="248.0" height="72" fill="none"/>
    <path d="M 1190.0 758.0 L 1480.0 758.0 L 1522.0 800.0 L 1232.0 800.0 Z" fill="var(--panel)" stroke="var(--accent-5)" stroke-width="2.5"/>
    <rect id="ITEM_5_TEXT_BG" x="1232.0" y="800.0" width="310.0" height="150.0" rx="22" fill="var(--panel)" fill-opacity="0.96" stroke="var(--accent-5)" stroke-width="2.5" filter="url(#svgf24ef1c9-shadow)"/>
    <rect x="1232.0" y="800.0" width="310.0" height="150.0" rx="16" fill="url(#svgf24ef1c9-universal-surface-sheen)" opacity="0.78"/>
    <circle cx="1268.0" cy="786.0" r="48" fill="url(#svgf24ef1c9-universal-icon-aura)" opacity="0.82"/>
    <circle cx="1268.0" cy="786.0" r="34" fill="var(--icon-pad-bg)" stroke="none" opacity="0.94"/>
    <circle cx="1268.0" cy="786.0" r="27.2" fill="none" stroke="var(--accent-5)" stroke-width="3" stroke-dasharray="6 4"/>
    <circle id="ITEM_5_PAD" cx="1268.00" cy="786.00" r="35.20" fill="var(--icon-pad-bg)" stroke="var(--primary-text)" stroke-width="2" opacity="0.9"/>
    <circle id="ITEM_5_PAD_INNER" cx="1268.00" cy="786.00" r="27.46" fill="var(--accent-5)" fill-opacity="0.22"/>
    <g id="ITEM_5_ICON" transform="translate(1246.0, 764.0)" data-icon-size="44" stroke-dasharray="6 4">
      <g transform="translate(-5.2233220338983095,-7.782779661016953) scale(2.481898305084746)" vector-effect="non-scaling-stroke" stroke-width="2.24" stroke-linecap="round" stroke-linejoin="round" stroke-opacity="1.0">
        <path d="M14.5 22H18a2 2 0 0 0 2-2V7l-5-5H6a2 2 0 0 0-2 2v4" vector-effect="non-scaling-stroke" fill="none" stroke="#f1f5f9"/>
        <path d="M14 2v4a2 2 0 0 0 2 2h4" vector-effect="non-scaling-stroke" fill="none" stroke="#f1f5f9"/>
        <path d="M3 13.1a2 2 0 0 0-1 1.76v3.24a2 2 0 0 0 .97 1.78L6 21.7a2 2 0 0 0 2.03.01L11 19.9a2 2 0 0 0 1-1.76V14.9a2 2 0 0 0-.97-1.78L8 11.3a2 2 0 0 0-2.03-.01Z" vector-effect="non-scaling-stroke" fill="none" stroke="#f1f5f9"/>
        <path d="M7 17v5" vector-effect="non-scaling-stroke" fill="none" stroke="#f1f5f9"/>
        <path d="M11.7 14.2 7 17l-4.7-2.8" vector-effect="non-scaling-stroke" fill="none" stroke="#f1f5f9"/>
      </g>
    </g>
    <text id="ITEM_5_HEAD" x="1256.0" y="812.0" font-weight="bold" font-size="22" fill="var(--primary-text)" data-bg-id="ITEM_5_TEXT_BG" fill-opacity="1.0" style="font-size: 30px; font-family: Inter, Segoe UI, Kalam, Roboto, Helvetica, Arial, sans-serif; font-weight: 700; letter-spacing:-0.4px;" data-final-font-size="30">
      <tspan x="1256.0" dy="26.25px">Final Conclusion</tspan>
    </text>
    <rect id="ITEM_5_HEAD_FRAME" x="1256.0" y="812.0" width="258.0" height="36" fill="none"/>
    <text id="ITEM_5_BODY" x="1256.0" y="858.0" font-size="17" fill="var(--primary-text)" data-bg-id="ITEM_5_TEXT_BG" style="font-size: 19px; font-family: Inter, Segoe UI, Kalam, Roboto, Helvetica, Arial, sans-serif; font-weight: 400;" data-final-font-size="19">
      <tspan x="1256.0" dy="20.10px">Motion parallax explains</tspan>
      <tspan x="1256.0" dy="23.75px">the apparent high velocity</tspan>
    </text>
    <rect id="ITEM_5_BODY_FRAME" x="1256.0" y="858.0" width="248.0" height="72" fill="none"/>
  </g>
</svg>
